<?xml version="1.0" encoding="UTF-8"?><svg id="Layer_2" xmlns="http://www.w3.org/2000/svg" xmlns:xlink="http://www.w3.org/1999/xlink" viewBox="0 0 2358.45 2239.07"><defs><style>.cls-1{opacity:.7;}.cls-2,.cls-3{fill:#fff;}.cls-4{fill:#d1d1d1;}.cls-3{opacity:.38;}.cls-5{fill:#101c3a;}.cls-6{clip-path:url(#clippath-6);}.cls-7{fill:#425fec;}.cls-8{fill:#cfe0fa;}.cls-9{fill:#ebf1fd;}.cls-10{fill:#fc721a;}.cls-11{fill:#3e36c7;}.cls-12{fill:#252724;}.cls-13{fill-rule:evenodd;}.cls-13,.cls-14{fill:#390d9f;}.cls-15{fill:#d9c8c0;}.cls-16{fill:#282725;}.cls-17{fill:none;}.cls-18{clip-path:url(#clippath-3);}.cls-19{fill:#f1f1f1;}.cls-20{fill:#f8a3a2;}</style><clipPath id="clippath-3"><path class="cls-17" d="M1883.55,1572.79c-759.68,154.83-531.76,550.11-1038.63,643.2C161.04,2341.6-159.66,1316.06,269.09,683.14,611.7,177.38,1202.75,17.6,1726.43,225.29c739.67,293.4,756.74,1225.29,157.12,1347.5Z"/></clipPath><clipPath id="clippath-6"><rect class="cls-17" x="112.63" y="691.78" width="2245.82" height="1533.69"/></clipPath></defs><g id="Layer_1-2"><g><g><path class="cls-19" d="M1835.08,1625.3c-179.2,49.67-517.71,395.83-307.83,558.2,209.9,162.37,836.85-704.84,307.83-558.2Z"/><path class="cls-19" d="M1883.55,1572.79c-759.68,154.83-531.76,550.11-1038.63,643.2C161.04,2341.6-159.66,1316.06,269.09,683.14,611.7,177.38,1202.75,17.6,1726.43,225.29c739.67,293.4,756.74,1225.29,157.12,1347.5Z"/><g class="cls-18"><g><g><g><rect class="cls-4" x="1236.73" y="196.19" width="1204.51" height="4.34"/><rect class="cls-4" x="1236.73" y="60.01" width="1204.51" height="4.38"/><g><rect class="cls-4" x="2190.12" y="65.33" width="3.57" height="133.02"/><rect class="cls-4" x="1888.33" y="65.33" width="3.57" height="133.02"/><rect class="cls-4" x="1586.54" y="65.33" width="3.57" height="133.02"/><rect class="cls-4" x="1284.75" y="65.33" width="3.57" height="133.02"/></g><g><rect class="cls-4" x="1204.04" y="331.04" width="3.59" height="2.17"/><rect class="cls-4" x="1236.73" y="331.04" width="1204.51" height="4.34"/></g><g><rect class="cls-4" x="2109.41" y="200.18" width="3.57" height="133.02"/><rect class="cls-4" x="1807.62" y="200.18" width="3.57" height="133.02"/><rect class="cls-4" x="1505.83" y="200.18" width="3.57" height="133.02"/><rect class="cls-4" x="1204.04" y="331.04" width="3.59" height="2.17"/></g><rect class="cls-4" x="1236.73" y="465.85" width="1204.51" height="4.38"/><g><rect class="cls-4" x="2190.12" y="335.03" width="3.57" height="133.02"/><rect class="cls-4" x="1888.33" y="335.03" width="3.57" height="133.02"/><rect class="cls-4" x="1586.54" y="335.03" width="3.57" height="133.02"/><rect class="cls-4" x="1284.75" y="335.03" width="3.57" height="133.02"/></g><g><rect class="cls-4" x="1204.04" y="600.7" width="3.59" height="2.21"/><rect class="cls-4" x="1236.73" y="600.7" width="1204.51" height="4.38"/></g><g><rect class="cls-4" x="2109.41" y="469.87" width="3.57" height="133.02"/><rect class="cls-4" x="1807.62" y="469.87" width="3.57" height="133.02"/><rect class="cls-4" x="1505.83" y="469.87" width="3.57" height="133.02"/><rect class="cls-4" x="1204.04" y="600.7" width="3.59" height="2.21"/></g><rect class="cls-4" x="1236.73" y="735.55" width="1204.51" height="4.38"/><g><rect class="cls-4" x="2190.12" y="604.72" width="3.57" height="133.02"/><rect class="cls-4" x="1888.33" y="604.72" width="3.57" height="133.02"/><rect class="cls-4" x="1586.54" y="604.72" width="3.57" height="133.02"/><rect class="cls-4" x="1284.75" y="604.72" width="3.57" height="133.02"/></g><g><rect class="cls-4" x="1204.04" y="870.4" width="3.59" height="2.17"/><rect class="cls-4" x="1236.73" y="870.4" width="1204.51" height="4.38"/></g><g><rect class="cls-4" x="2109.41" y="739.56" width="3.57" height="133.02"/><rect class="cls-4" x="1807.62" y="739.56" width="3.57" height="133.02"/><rect class="cls-4" x="1505.83" y="739.56" width="3.57" height="133.02"/><rect class="cls-4" x="1204.04" y="870.4" width="3.59" height="2.17"/></g><g><rect class="cls-4" x="1204.04" y="1009.26" width="3.59" height=".37"/><rect class="cls-4" x="1236.73" y="1005.24" width="1204.51" height="4.38"/></g><g><rect class="cls-4" x="2190.12" y="874.41" width="3.57" height="133.02"/><rect class="cls-4" x="1888.33" y="874.41" width="3.57" height="133.02"/><rect class="cls-4" x="1586.54" y="874.41" width="3.57" height="133.02"/><rect class="cls-4" x="1284.75" y="874.41" width="3.57" height="133.02"/></g><g><rect class="cls-4" x="1204.04" y="1140.09" width="3.59" height="2.17"/><rect class="cls-4" x="1236.73" y="1140.09" width="1204.51" height="4.38"/></g><g><rect class="cls-4" x="2109.41" y="1009.26" width="3.57" height="133.02"/><rect class="cls-4" x="1807.62" y="1009.26" width="3.57" height="133.02"/><rect class="cls-4" x="1505.83" y="1009.26" width="3.57" height="133.02"/><g><rect class="cls-4" x="1204.04" y="1009.26" width="3.59" height=".37"/><rect class="cls-4" x="1204.04" y="1140.09" width="3.59" height="2.17"/></g></g><g><rect class="cls-4" x="1204.04" y="1276.56" width="3.59" height=".32"/><rect class="cls-4" x="1236.73" y="1272.55" width="1204.51" height="4.33"/></g><g><rect class="cls-4" x="2190.12" y="1141.69" width="3.57" height="133.02"/><rect class="cls-4" x="1888.33" y="1141.69" width="3.57" height="133.02"/><rect class="cls-4" x="1586.54" y="1141.69" width="3.57" height="133.02"/><rect class="cls-4" x="1284.75" y="1141.69" width="3.57" height="133.02"/></g><rect class="cls-4" x="-29.58" y="1407.4" width="2470.82" height="4.33"/><g><rect class="cls-4" x="2109.41" y="1276.54" width="3.57" height="133.02"/><rect class="cls-4" x="1807.62" y="1276.54" width="3.57" height="133.02"/><rect class="cls-4" x="1505.83" y="1276.54" width="3.57" height="133.02"/><g><rect class="cls-4" x="1204.04" y="1276.56" width="3.59" height=".32"/><rect class="cls-4" x="1204.04" y="1359.66" width="3.59" height="49.9"/></g><rect class="cls-4" x="902.24" y="1359.66" width="3.6" height="49.9"/><rect class="cls-4" x="600.44" y="1407.4" width="3.6" height="2.17"/><rect class="cls-4" x="298.64" y="1359.66" width="3.6" height="49.9"/></g><rect class="cls-4" x="-29.6" y="1542.23" width="2470.84" height="4.36"/><g><rect class="cls-4" x="2190.12" y="1411.38" width="3.57" height="133.02"/><rect class="cls-4" x="1888.33" y="1411.38" width="3.57" height="133.02"/><rect class="cls-4" x="1586.54" y="1411.38" width="3.57" height="133.02"/><rect class="cls-4" x="1284.75" y="1411.38" width="3.57" height="133.02"/><rect class="cls-4" x="982.95" y="1411.38" width="3.57" height="133.02"/><rect class="cls-4" x="681.16" y="1411.38" width="3.57" height="133.02"/><rect class="cls-4" x="379.37" y="1411.38" width="3.57" height="133.02"/><rect class="cls-4" x="77.57" y="1411.38" width="3.57" height="133.02"/></g><rect class="cls-4" x="-29.6" y="1677.07" width="2470.84" height="4.36"/><g><rect class="cls-4" x="2109.41" y="1546.23" width="3.57" height="133.03"/><rect class="cls-4" x="1807.62" y="1546.23" width="3.57" height="133.03"/><rect class="cls-4" x="1505.83" y="1546.23" width="3.57" height="133.03"/><rect class="cls-4" x="1204.04" y="1546.23" width="3.57" height="133.03"/><rect class="cls-4" x="902.25" y="1546.23" width="3.57" height="133.03"/><rect class="cls-4" x="600.45" y="1546.23" width="3.57" height="133.03"/><rect class="cls-4" x="298.66" y="1546.23" width="3.57" height="133.03"/></g><rect class="cls-4" x="-29.6" y="1811.92" width="2470.84" height="4.36"/><g><rect class="cls-4" x="2190.12" y="1681.08" width="3.57" height="133.02"/><rect class="cls-4" x="1888.33" y="1681.08" width="3.57" height="133.02"/><rect class="cls-4" x="1586.54" y="1681.08" width="3.57" height="133.02"/><rect class="cls-4" x="1284.75" y="1681.08" width="3.57" height="133.02"/><rect class="cls-4" x="982.95" y="1681.08" width="3.57" height="133.02"/><rect class="cls-4" x="681.16" y="1681.08" width="3.57" height="133.02"/><rect class="cls-4" x="379.37" y="1681.08" width="3.57" height="133.02"/><rect class="cls-4" x="77.57" y="1681.08" width="3.57" height="133.02"/></g><rect class="cls-4" x="-29.6" y="1946.77" width="2470.84" height="4.36"/><g><rect class="cls-4" x="2109.41" y="1815.93" width="3.57" height="133.01"/><rect class="cls-4" x="1807.62" y="1815.93" width="3.57" height="133.01"/><rect class="cls-4" x="1505.83" y="1815.93" width="3.57" height="133.01"/><rect class="cls-4" x="1204.04" y="1815.93" width="3.57" height="133.01"/><rect class="cls-4" x="902.25" y="1815.93" width="3.57" height="133.01"/><rect class="cls-4" x="600.45" y="1815.93" width="3.57" height="133.01"/><rect class="cls-4" x="298.66" y="1815.93" width="3.57" height="133.01"/></g><rect class="cls-4" x="-29.6" y="2081.61" width="2470.84" height="4.36"/><g><rect class="cls-4" x="2190.12" y="1950.77" width="3.57" height="133.01"/><rect class="cls-4" x="1888.33" y="1950.77" width="3.57" height="133.01"/><rect class="cls-4" x="1586.54" y="1950.77" width="3.57" height="133.01"/><rect class="cls-4" x="1284.75" y="1950.77" width="3.57" height="133.01"/><rect class="cls-4" x="982.95" y="1950.77" width="3.57" height="133.01"/><rect class="cls-4" x="681.16" y="1950.77" width="3.57" height="133.01"/><rect class="cls-4" x="379.37" y="1950.77" width="3.57" height="133.01"/><rect class="cls-4" x="77.57" y="1950.77" width="3.57" height="133.01"/></g><rect class="cls-4" x="-29.6" y="2216.46" width="2470.84" height="4.36"/><g><rect class="cls-4" x="2109.41" y="2085.62" width="3.57" height="133.02"/><rect class="cls-4" x="1807.62" y="2085.62" width="3.57" height="133.02"/><rect class="cls-4" x="1505.83" y="2085.62" width="3.57" height="133.02"/><rect class="cls-4" x="1204.04" y="2085.62" width="3.57" height="133.02"/><rect class="cls-4" x="902.25" y="2085.62" width="3.57" height="133.02"/><rect class="cls-4" x="600.45" y="2085.62" width="3.57" height="133.02"/><rect class="cls-4" x="298.66" y="2085.62" width="3.57" height="133.02"/></g></g><g class="cls-1"><rect class="cls-4" x="-2.78" y="101.18" width="1229.29" height="1250.49"/></g><path class="cls-4" d="M-68.6,1328.21c9.42,20.78,19.9,40.96,31.6,60.37H1257.29V52.65c-17.01-2.17-34.21-4.54-51.47-7.28V498.38h-402.2V-4.36c-20.15-2.21-39.87-2.4-59.09-.69V498.38H387.24V189.62h-58.25V498.38H56.98c-6.44,15.36-12.38,31.26-17.79,47.64H328.99v376.51H-41.88c.41,15.7,1.25,31.6,2.49,47.64H328.99v358.03H-68.6Zm872.22-358.03h402.2v358.03h-402.2v-358.03Zm0-424.15h402.2v376.51h-402.2v-376.51Zm-59.09,376.51H387.24v-376.51h357.29v376.51Zm0,405.67H387.24v-358.03h357.29v358.03Z"/></g><path class="cls-4" d="M1680.77,636.79c-78-58.77-124.26-112.3-143.04-136.15V133.22h-19.68V500.63c-18.77,23.85-65.04,77.39-143.03,136.16h113.61c0,21.2,17.18,38.39,38.38,38.39s38.4-17.18,38.4-38.38h115.37Z"/></g></g></g><g><polygon class="cls-13" points="1980.31 768.39 1884.23 677.55 2010.94 639.76 1980.31 768.39"/><path class="cls-5" d="M1967.88,746.35l-99.44-94.01,131.14-39.11-31.7,133.12Zm-94.25-92.78l92.73,87.67,29.56-124.14-122.29,36.47Z"/></g><g><circle class="cls-7" cx="424.21" cy="231.69" r="66.92" transform="translate(-59.15 231.39) rotate(-28.61)"/><path class="cls-5" d="M435.12,289.8c-37.4,0-67.83-30.43-67.83-67.83s30.43-67.83,67.83-67.83,67.83,30.43,67.83,67.83-30.43,67.83-67.83,67.83Zm0-133.84c-36.4,0-66.01,29.61-66.01,66.01s29.61,66.01,66.01,66.01,66.01-29.61,66.01-66.01-29.61-66.01-66.01-66.01Z"/></g><path class="cls-7" d="M1067.11,350.2l.48,.24,19.68-39.4-43.09,2.56-.02,2.26c1.01,14.16,9.3,27.48,22.95,34.33Z"/><path class="cls-10" d="M2291.86,1497.78l.48,.24,19.67-39.4-43.09,2.57-.03,2.27c1.01,14.15,9.3,27.47,22.96,34.33Z"/><path class="cls-14" d="M.48,991.79l-.48,.24,19.67,39.4,23.83-35.99-1.79-1.38c-11.92-7.7-27.55-9.07-41.24-2.28Z"/><path class="cls-14" d="M1427.54,2006.47c0,3.25-2.64,5.9-5.9,5.9s-5.9-2.64-5.9-5.9,2.64-5.9,5.9-5.9,5.9,2.64,5.9,5.9Z"/><path class="cls-14" d="M112.63,493.58c-3.26,0-5.9-2.64-5.9-5.9s2.64-5.9,5.9-5.9v11.8Z"/><path class="cls-10" d="M1320.14,713.11c-3.26,0-5.9-2.64-5.9-5.9s2.64-5.9,5.9-5.9v11.8Z"/><path class="cls-14" d="M1698.8,371.39c0-3.26,2.64-5.9,5.9-5.9s5.9,2.64,5.9,5.9h-11.8Z"/><path class="cls-10" d="M1427.54,11.79c0,6.52-5.28,11.8-11.8,11.8s-11.8-5.28-11.8-11.8,5.28-11.79,11.8-11.79,11.8,5.28,11.8,11.79Z"/><path class="cls-10" d="M586.76,719.01c0,6.51-5.28,11.8-11.79,11.8s-11.8-5.28-11.8-11.8,5.28-11.8,11.8-11.8,11.79,5.28,11.79,11.8Z"/><circle class="cls-14" cx="2042.14" cy="1043.71" r="11.8" transform="translate(-139.89 1749.7) rotate(-45)"/><path class="cls-10" d="M2112.35,312.42c0,7.82-6.35,14.16-14.17,14.16s-14.16-6.34-14.16-14.16,6.33-14.16,14.16-14.16,14.17,6.34,14.17,14.16Z"/><path class="cls-14" d="M87.98,1854.94c0,7.82-6.34,14.16-14.16,14.16s-14.16-6.34-14.16-14.16,6.34-14.17,14.16-14.17,14.16,6.34,14.16,14.17Z"/><g class="cls-6"><g><g><g><g><polygon class="cls-10" points="357.29 1749.55 589.95 1749.55 551.81 1816.84 357.29 1816.84 357.29 1749.55"/><polygon class="cls-5" points="524.83 1816.84 292.17 1816.84 320.4 1749.55 524.83 1749.55 524.83 1816.84"/><polygon class="cls-5" points="673.54 2594.08 443.96 1778.4 475.87 1769.4 708 2594.08 673.54 2594.08"/><polygon class="cls-5" points="112.63 2594.08 344.76 1769.4 376.68 1778.4 147.09 2594.08 112.63 2594.08"/></g><g><polygon class="cls-8" points="1674 1749.55 1906.67 1749.55 1868.52 1816.84 1674 1816.84 1674 1749.55"/><polygon class="cls-5" points="1841.54 1816.84 1608.89 1816.84 1637.12 1749.55 1841.54 1749.55 1841.54 1816.84"/><polygon class="cls-5" points="1990.25 2594.08 1760.67 1778.4 1792.58 1769.4 2024.71 2594.08 1990.25 2594.08"/><polygon class="cls-5" points="1429.35 2594.08 1661.48 1769.4 1693.39 1778.4 1463.8 2594.08 1429.35 2594.08"/></g><rect class="cls-5" x="284.11" y="1730.15" width="1670.54" height="26.21"/></g><g><g><path class="cls-5" d="M1574.49,1278.67c-1.87,0-3.77-.46-5.53-1.42-5.61-3.05-7.7-10.08-4.63-15.7l119.45-219.61-157.79-204.11-108.7,81.57c-5.1,3.85-12.36,2.82-16.2-2.29-3.85-5.12-2.81-12.39,2.31-16.22l117.82-88.43c5.08-3.8,12.25-2.84,16.13,2.17l169.38,219.13c2.81,3.64,3.21,8.59,1.01,12.62l-123.05,226.26c-2.1,3.86-6.07,6.04-10.19,6.04Z"/><g><path class="cls-5" d="M1454.64,960.15l-73.81,6.64-2.75-30.65c-1.84-20.38,13.2-38.39,33.59-40.22h0c20.37-1.84,38.38,13.21,40.21,33.59l2.75,30.63Z"/><path class="cls-14" d="M1344.43,1069.52l164.38-14.85-.02-.4-.23-2.72-5.9-65.1c-1.93-21.08-11.6-39.64-25.97-53.02-13.01-12.12-29.87-20.02-48.26-21.77-1.84-.2-3.67-.27-5.62-.32-3.2-.09-6.41-.03-9.71,.27-45.4,4.1-78.86,44.23-74.83,89.56l6.15,68.34Z"/><path class="cls-7" d="M1508.8,1054.68c-55.94,38.85-102.44,37.52-131.48,29.61-8.73-2.36-15.83-5.32-21.2-7.93-7.59-3.74-11.67-6.84-11.67-6.84l10.94-.98,20.35-1.82,133.06-12.04Z"/><path class="cls-3" d="M1377.31,1084.29c-8.73-2.36-15.83-5.32-21.2-7.93l-.72-7.82-6.23-69.52c-3.67-41.25,23.54-78.12,62.58-87.52,1.95,.08,3.8,.17,5.62,.34-31.15,14.11-51.43,46.73-48.22,82.64l6.59,72.23,1.58,17.57Z"/></g><g><path class="cls-11" d="M1549.43,821.71c0-11.74-9.52-21.26-21.26-21.26s-21.27,9.51-21.27,21.26,9.52,21.26,21.27,21.26,21.26-9.51,21.26-21.26Z"/><path class="cls-5" d="M1530.49,832.31c-7.44,0-13.5-6.06-13.5-13.5s6.05-13.49,13.5-13.49,13.48,6.05,13.48,13.49-6.05,13.5-13.48,13.5Zm0-24.38c-6,0-10.89,4.88-10.89,10.88s4.88,10.89,10.89,10.89,10.88-4.89,10.88-10.89-4.88-10.88-10.88-10.88Z"/><path class="cls-7" d="M1540.36,821.71c0-6.74-5.46-12.18-12.18-12.18s-12.19,5.44-12.19,12.18,5.46,12.19,12.19,12.19,12.18-5.46,12.18-12.19Z"/></g><g><path class="cls-11" d="M1713.15,1044.39c0-11.73-9.52-21.26-21.27-21.26s-21.26,9.52-21.26,21.26,9.52,21.28,21.26,21.28,21.27-9.52,21.27-21.28Z"/><path class="cls-5" d="M1695.66,1055.69c-7.44,0-13.49-6.05-13.49-13.5s6.05-13.48,13.49-13.48,13.5,6.05,13.5,13.48-6.05,13.5-13.5,13.5Zm0-24.37c-6,0-10.88,4.88-10.88,10.87s4.88,10.89,10.88,10.89,10.89-4.89,10.89-10.89-4.88-10.87-10.89-10.87Z"/><path class="cls-7" d="M1704.08,1044.39c0-6.73-5.46-12.17-12.19-12.17s-12.17,5.44-12.17,12.17,5.46,12.19,12.17,12.19,12.19-5.45,12.19-12.19Z"/></g><path class="cls-5" d="M1343.52,1040.25l-3.37,.86c-.88-3.44-21.07-84.55,26.23-111.81l1.74,3.01c-45.01,25.95-24.8,107.12-24.6,107.94Z"/><path class="cls-5" d="M1371.8,973.06l-3.4-.77c10.7-47.48,47.99-61.92,48.37-62.05l1.22,3.26c-.36,.14-35.92,13.99-46.19,59.56Z"/></g><g><path class="cls-5" d="M1022.75,1248.71c-1.87,0-3.77-.46-5.52-1.42-5.62-3.05-7.7-10.08-4.64-15.7l119.45-219.61-92.42-241.93-126.74,49.07c-5.96,2.32-12.67-.64-14.97-6.6-2.32-5.97,.65-12.68,6.61-14.99l137.37-53.2c5.91-2.28,12.56,.59,14.93,6.46l98.16,253.01c2.81,3.63,3.21,8.59,1.01,12.62l-123.05,226.26c-2.1,3.86-6.07,6.04-10.19,6.04Z"/><g><path class="cls-5" d="M957.62,855.96l-72.75,14.12-5.86-30.21c-3.9-20.08,9.23-39.53,29.32-43.43h0c20.07-3.91,39.53,9.23,43.43,29.32l5.86,30.2Z"/><path class="cls-14" d="M859.11,975.98l162.02-31.52-.06-.39-.5-2.69-12.5-64.16c-4.06-20.77-15.57-38.25-31.23-50.1-14.18-10.73-31.75-16.87-50.22-16.74-1.85-.02-3.68,.11-5.62,.25-3.2,.23-6.37,.62-9.64,1.26-44.74,8.7-73.95,52.03-65.32,96.72l13.07,67.36Z"/><path class="cls-7" d="M1021.12,944.48c-51.69,44.34-98.09,47.76-127.78,42.85-8.93-1.46-16.3-3.68-21.9-5.73-7.93-2.95-12.3-5.62-12.3-5.62l10.79-2.09,20.05-3.88,131.15-25.53Z"/><path class="cls-3" d="M893.33,987.32c-8.93-1.46-16.3-3.68-21.9-5.73l-1.52-7.71-13.27-68.52c-7.85-40.66,15.46-80.11,53.35-93.43,1.95-.12,3.8-.22,5.62-.24-29.55,17.2-46.4,51.72-39.55,87.12l13.91,71.19,3.36,17.32Z"/></g><g><path class="cls-11" d="M1066.55,760.88c3.18-11.3-3.41-23.04-14.7-26.22-11.3-3.18-23.05,3.4-26.23,14.7-3.18,11.3,3.41,23.04,14.71,26.22,11.29,3.18,23.04-3.4,26.22-14.7Z"/><path class="cls-5" d="M1045.44,765.95c-7.16-2.01-11.35-9.49-9.33-16.65,2.02-7.16,9.48-11.34,16.64-9.32,7.16,2.02,11.34,9.48,9.33,16.63-2.02,7.16-9.48,11.36-16.64,9.34Zm6.6-23.46c-5.78-1.63-11.8,1.74-13.42,7.52-1.62,5.78,1.75,11.81,7.53,13.43,5.77,1.62,11.79-1.75,13.42-7.54,1.62-5.77-1.75-11.79-7.52-13.41Z"/><path class="cls-7" d="M1057.81,758.42c1.83-6.49-1.95-13.2-8.42-15.03-6.49-1.83-13.21,1.94-15.04,8.42-1.82,6.48,1.95,13.21,8.43,15.04,6.48,1.82,13.21-1.96,15.03-8.43Z"/></g><g><path class="cls-11" d="M1161.41,1014.43c0-11.73-9.52-21.26-21.27-21.26s-21.26,9.52-21.26,21.26,9.52,21.28,21.26,21.28,21.27-9.52,21.27-21.28Z"/><path class="cls-5" d="M1143.92,1025.73c-7.44,0-13.49-6.05-13.49-13.5s6.05-13.48,13.49-13.48,13.5,6.05,13.5,13.48-6.05,13.5-13.5,13.5Zm0-24.37c-6,0-10.88,4.88-10.88,10.87s4.88,10.89,10.88,10.89,10.89-4.89,10.89-10.89-4.88-10.87-10.89-10.87Z"/><path class="cls-7" d="M1152.33,1014.43c0-6.73-5.45-12.17-12.19-12.17s-12.18,5.44-12.18,12.17,5.46,12.19,12.18,12.19,12.19-5.45,12.19-12.19Z"/></g><path class="cls-5" d="M855.22,946.96l-3.27,1.2c-1.23-3.33-29.58-81.97,14.71-113.9l2.04,2.82c-42.13,30.39-13.77,109.09-13.48,109.88Z"/><path class="cls-5" d="M876.51,877.24l-3.45-.41c5.8-48.33,41.43-66.48,41.79-66.66l1.55,3.12c-.34,.17-34.31,17.58-39.89,63.96Z"/></g></g><g><polygon class="cls-5" points="1621.9 1741.01 391.11 1741.01 700.92 1182.1 1931.71 1182.1 1621.9 1741.01"/><polygon class="cls-9" points="1900.01 1182.1 1590.2 1741.03 359.43 1741.03 669.24 1182.1 1900.01 1182.1"/><g><polygon class="cls-11" points="1513.18 1245.63 789.23 1245.63 694.63 1421.9 1418.57 1421.9 1513.18 1245.63"/><polygon class="cls-10" points="1429.3 1401.92 1296.52 1343.49 1126.31 1392.34 913.17 1300.8 733.22 1350.02 694.02 1423.04 1417.96 1423.04 1429.3 1401.92"/><path class="cls-2" d="M1477.24,1261.44h-161.36c-6.18,0-13.87,5.01-17.19,11.18-3.32,6.18-1,11.19,5.18,11.19h161.36c6.18,0,13.87-5.01,17.19-11.19,3.31-6.18,.99-11.18-5.19-11.18Z"/><g><path class="cls-10" d="M1312.74,1275.04c-.99,0-2.22,.81-2.75,1.79-.53,.99-.16,1.79,.83,1.79s2.22-.8,2.75-1.79c.53-.98,.16-1.79-.83-1.79Z"/><path class="cls-10" d="M1329.71,1275.04c-.98,0-2.21,.81-2.75,1.79-.53,.99-.16,1.79,.83,1.79s2.22-.8,2.75-1.79c.53-.98,.16-1.79-.83-1.79Z"/><path class="cls-10" d="M1346.68,1275.04c-.99,0-2.22,.81-2.75,1.79-.53,.99-.16,1.79,.83,1.79s2.22-.8,2.75-1.79c.53-.98,.16-1.79-.83-1.79Z"/></g><g><path class="cls-10" d="M1469.3,1266.78c-2.29,0-5.16,1.87-6.39,4.16-1.23,2.29-.36,4.15,1.93,4.15s5.16-1.86,6.39-4.15c1.23-2.29,.36-4.16-1.93-4.16Zm-3.52,6.57c-1.33,0-1.83-1.08-1.11-2.41,.71-1.33,2.37-2.41,3.7-2.41s1.83,1.08,1.11,2.41c-.71,1.33-2.37,2.41-3.7,2.41Z"/><polygon class="cls-10" points="1467.39 1273.66 1469.1 1277.35 1471 1276.12 1469.28 1272.42 1467.39 1273.66"/></g><g><polygon class="cls-16" points="809.12 1638.15 806.59 1642.85 877.54 1642.85 880.15 1638.15 809.12 1638.15"/><polygon class="cls-16" points="801.53 1652.29 799.01 1657 949.54 1657 952.14 1652.29 801.53 1652.29"/><polygon class="cls-16" points="793.94 1666.44 791.42 1671.14 910.43 1671.14 913.03 1666.44 793.94 1666.44"/><polygon class="cls-16" points="884.97 1642.85 906.87 1642.85 909.47 1638.15 887.57 1638.15 884.97 1642.85"/></g><path class="cls-2" d="M1230.37,1313.9c-8.01,14.93-26.61,27.03-41.54,27.03s-20.54-12.1-12.52-27.03c8.01-14.93,26.61-27.04,41.55-27.04s20.53,12.1,12.52,27.04Z"/><g><polygon class="cls-16" points="1000.8 1638.15 998.28 1642.85 1069.23 1642.85 1071.83 1638.15 1000.8 1638.15"/><polygon class="cls-16" points="993.21 1652.29 990.69 1657 1141.23 1657 1143.83 1652.29 993.21 1652.29"/><polygon class="cls-16" points="985.62 1666.44 983.1 1671.14 1102.12 1671.14 1104.72 1666.44 985.62 1666.44"/><polygon class="cls-16" points="1076.65 1642.85 1098.55 1642.85 1101.16 1638.15 1079.25 1638.15 1076.65 1642.85"/></g><g><polygon class="cls-16" points="1187.38 1636.42 1184.85 1641.12 1255.8 1641.12 1258.4 1636.42 1187.38 1636.42"/><polygon class="cls-16" points="1179.79 1650.56 1177.26 1655.26 1327.8 1655.26 1330.4 1650.56 1179.79 1650.56"/><polygon class="cls-16" points="1172.2 1664.7 1169.67 1669.4 1288.69 1669.4 1291.29 1664.7 1172.2 1664.7"/><polygon class="cls-16" points="1263.22 1641.12 1285.12 1641.12 1287.73 1636.42 1265.83 1636.42 1263.22 1641.12"/></g><g><polygon class="cls-2" points="1062.09 1373.04 1055.45 1373.06 1058.99 1366.43 1065.63 1366.41 1062.09 1373.04"/><polygon class="cls-2" points="806 1373.04 799.36 1373.06 802.9 1366.43 809.54 1366.41 806 1373.04"/><polygon class="cls-2" points="1109.09 1285.06 1102.45 1285.08 1105.99 1278.44 1112.63 1278.43 1109.09 1285.06"/><polygon class="cls-2" points="981.15 1285.06 974.51 1285.08 978.06 1278.44 984.69 1278.43 981.15 1285.06"/><polygon class="cls-2" points="933.93 1373.04 927.29 1373.06 930.84 1366.43 937.47 1366.41 933.93 1373.04"/><polygon class="cls-2" points="829.89 1328.31 823.25 1328.32 826.8 1321.7 833.43 1321.68 829.89 1328.31"/><polygon class="cls-2" points="1086.32 1327.69 1079.68 1327.71 1083.22 1321.07 1089.86 1321.06 1086.32 1327.69"/><polygon class="cls-2" points="853 1285.06 846.36 1285.08 849.9 1278.44 856.54 1278.43 853 1285.06"/><g><path class="cls-2" d="M908.47,1307.96l-14.6,.03,3.69-6.91,37.39-.08-3.69,6.91-14.6,.04-19.81,37.09-8.18,.02,19.82-37.09Z"/><path class="cls-2" d="M952.49,1330.64l-26.37,.06c-1.68,4.9,.74,8.03,6.59,8.01,3.78,0,7.37-1.2,11.07-3.67l1.63,4.83c-4.93,3.59-10.66,5.49-16.46,5.5-11.27,.03-14.71-7.18-9.37-17.18,5.34-9.99,16.53-17.17,26.54-17.2,9.82-.03,13.33,6.81,7.72,17.3-.34,.63-.9,1.58-1.37,2.33Zm-23.65-5.16l19.07-.05c1.96-4.84,.02-8.16-5.14-8.14-5.1,.01-10.56,3.29-13.93,8.19Z"/><path class="cls-2" d="M973.01,1344.84l-2.41-11.61-14.9,11.65-8.69,.02,22.19-17.07-3.69-16.5,8.75-.03,2.37,10.98,14.12-11.02,8.5-.02-21.35,16.44,3.99,17.13-8.88,.02Z"/><path class="cls-2" d="M1008.87,1342.93c-2.7,1.52-5.93,2.28-8.76,2.29-7.36,.02-9.5-3.87-5.54-11.29l8.63-16.16-5.54,.02,3.36-6.29h5.54l4.1-7.68,7.87-.02-4.1,7.67,9-.02-3.36,6.28-9,.02-8.53,15.97c-1.75,3.27-1.05,5.03,1.97,5.02,1.63,0,3.44-.45,5.14-1.39l-.78,5.59Z"/></g><g><path class="cls-2" d="M1061.12,1371h-3.79c-.7,0-.96-.57-.58-1.26,.37-.7,1.24-1.26,1.94-1.26h1.26l.68-1.26c.37-.7,1.24-1.27,1.94-1.27s.96,.57,.59,1.27l-2.03,3.79Z"/><path class="cls-2" d="M1047.28,1371h-5.03c-.7,0-.96-.57-.59-1.26,.37-.7,1.24-1.26,1.94-1.26h5.02c.7,0,.96,.57,.59,1.26-.37,.7-1.24,1.26-1.94,1.26Zm-15.07,0h-5.03c-.7,0-.96-.57-.59-1.26,.37-.7,1.24-1.26,1.94-1.26h5.03c.7,0,.96,.57,.58,1.26-.37,.7-1.24,1.26-1.94,1.26Zm-15.08,0h-5.02c-.7,0-.96-.57-.59-1.26,.37-.7,1.24-1.26,1.94-1.26h5.03c.7,0,.96,.57,.59,1.26-.37,.7-1.24,1.26-1.94,1.26Zm-15.07,0h-5.03c-.7,0-.96-.57-.59-1.26,.37-.7,1.24-1.26,1.94-1.26h5.03c.7,0,.96,.57,.59,1.26-.37,.7-1.24,1.26-1.94,1.26Zm-15.08,0h-5.02c-.7,0-.96-.57-.59-1.26,.37-.7,1.24-1.26,1.94-1.26h5.02c.7,0,.96,.57,.59,1.26-.37,.7-1.24,1.26-1.94,1.26Zm-15.07,0h-5.03c-.7,0-.96-.57-.58-1.26,.37-.7,1.24-1.26,1.94-1.26h5.03c.7,0,.96,.57,.59,1.26-.37,.7-1.24,1.26-1.94,1.26Zm-15.07,0h-5.03c-.7,0-.96-.57-.59-1.26,.37-.7,1.24-1.26,1.94-1.26h5.03c.7,0,.96,.57,.59,1.26-.37,.7-1.24,1.26-1.94,1.26Zm-15.08,0h-5.02c-.7,0-.96-.57-.59-1.26,.37-.7,1.24-1.26,1.94-1.26h5.02c.7,0,.96,.57,.59,1.26-.38,.7-1.24,1.26-1.94,1.26Zm-15.07,0h-5.03c-.7,0-.96-.57-.59-1.26,.38-.7,1.25-1.26,1.94-1.26h5.03c.7,0,.96,.57,.59,1.26-.37,.7-1.24,1.26-1.94,1.26Zm-15.07,0h-5.03c-.7,0-.96-.57-.59-1.26,.37-.7,1.24-1.26,1.94-1.26h5.03c.7,0,.96,.57,.59,1.26-.37,.7-1.24,1.26-1.94,1.26Zm-15.08,0h-5.03c-.7,0-.96-.57-.59-1.26,.37-.7,1.24-1.26,1.94-1.26h5.03c.7,0,.96,.57,.59,1.26-.38,.7-1.25,1.26-1.94,1.26Zm-15.07,0h-5.03c-.7,0-.96-.57-.59-1.26,.38-.7,1.24-1.26,1.94-1.26h5.03c.7,0,.96,.57,.59,1.26-.37,.7-1.24,1.26-1.94,1.26Zm-15.08,0h-5.03c-.7,0-.96-.57-.58-1.26,.37-.7,1.24-1.26,1.94-1.26h5.02c.7,0,.96,.57,.59,1.26-.37,.7-1.24,1.26-1.94,1.26Zm-15.07,0h-5.03c-.7,0-.96-.57-.59-1.26,.37-.7,1.24-1.26,1.94-1.26h5.03c.7,0,.96,.57,.58,1.26-.37,.7-1.24,1.26-1.94,1.26Zm-15.07,0h-5.03c-.7,0-.96-.57-.59-1.26,.37-.7,1.24-1.26,1.94-1.26h5.03c.7,0,.96,.57,.59,1.26-.37,.7-1.25,1.26-1.94,1.26Zm-15.08,0h-5.02c-.7,0-.96-.57-.58-1.26,.37-.7,1.24-1.26,1.94-1.26h5.02c.7,0,.96,.57,.59,1.26-.37,.7-1.24,1.26-1.94,1.26Z"/><path class="cls-2" d="M806.08,1371h-3.79l2.03-3.79c.37-.7,1.24-1.27,1.94-1.27s.96,.57,.58,1.27l-.68,1.26h1.26c.7,0,.96,.57,.59,1.26-.38,.7-1.25,1.26-1.94,1.26Z"/><path class="cls-2" d="M810.15,1358.71c-.7,0-.96-.57-.59-1.26l2.62-4.88c.37-.7,1.24-1.27,1.94-1.27s.96,.57,.58,1.27l-2.62,4.88c-.37,.7-1.24,1.26-1.94,1.26Zm7.85-14.63c-.7,0-.96-.57-.59-1.26l2.62-4.88c.37-.7,1.24-1.26,1.94-1.26s.96,.56,.59,1.26l-2.62,4.88c-.37,.7-1.24,1.26-1.94,1.26Zm7.86-14.64c-.7,0-.96-.57-.59-1.26l2.62-4.88c.37-.7,1.24-1.26,1.94-1.26s.96,.57,.59,1.26l-2.62,4.88c-.37,.7-1.24,1.26-1.94,1.26Zm7.85-14.64c-.7,0-.96-.57-.59-1.26l2.62-4.88c.37-.7,1.24-1.26,1.94-1.26s.96,.57,.59,1.26l-2.62,4.88c-.37,.7-1.24,1.26-1.94,1.26Zm7.86-14.63c-.7,0-.96-.56-.59-1.26l2.62-4.88c.38-.7,1.25-1.26,1.94-1.26s.96,.57,.59,1.26l-2.62,4.88c-.37,.7-1.24,1.26-1.94,1.26Z"/><path class="cls-2" d="M849.42,1285.54c-.7,0-.96-.57-.59-1.26l2.03-3.8h3.79c.7,0,.96,.57,.58,1.26-.37,.7-1.24,1.27-1.94,1.27h-1.26l-.68,1.26c-.37,.7-1.24,1.26-1.94,1.26Z"/><path class="cls-2" d="M1094.5,1283.02h-5.02c-.7,0-.96-.57-.59-1.27,.37-.7,1.24-1.26,1.94-1.26h5.03c.7,0,.96,.57,.58,1.26-.37,.7-1.24,1.27-1.94,1.27Zm-15.08,0h-5.03c-.7,0-.96-.57-.59-1.27,.37-.7,1.24-1.26,1.94-1.26h5.03c.7,0,.96,.57,.59,1.26-.37,.7-1.24,1.27-1.94,1.27Zm-15.07,0h-5.03c-.7,0-.96-.57-.58-1.27,.37-.7,1.24-1.26,1.94-1.26h5.03c.7,0,.96,.57,.59,1.26-.37,.7-1.24,1.27-1.94,1.27Zm-15.07,0h-5.03c-.7,0-.96-.57-.58-1.27,.37-.7,1.24-1.26,1.94-1.26h5.03c.7,0,.96,.57,.58,1.26-.37,.7-1.24,1.27-1.94,1.27Zm-15.08,0h-5.03c-.7,0-.96-.57-.59-1.27,.37-.7,1.24-1.26,1.94-1.26h5.03c.7,0,.96,.57,.59,1.26-.38,.7-1.24,1.27-1.94,1.27Zm-15.07,0h-5.03c-.7,0-.96-.57-.59-1.27,.38-.7,1.24-1.26,1.94-1.26h5.03c.7,0,.96,.57,.59,1.26-.37,.7-1.24,1.27-1.94,1.27Zm-15.07,0h-5.03c-.7,0-.96-.57-.59-1.27,.37-.7,1.24-1.26,1.94-1.26h5.03c.7,0,.96,.57,.59,1.26-.37,.7-1.24,1.27-1.94,1.27Zm-15.08,0h-5.03c-.7,0-.96-.57-.59-1.27,.37-.7,1.24-1.26,1.94-1.26h5.03c.7,0,.96,.57,.58,1.26-.37,.7-1.24,1.27-1.94,1.27Zm-15.08,0h-5.02c-.7,0-.96-.57-.59-1.27,.37-.7,1.24-1.26,1.94-1.26h5.02c.7,0,.96,.57,.59,1.26-.37,.7-1.24,1.27-1.94,1.27Zm-15.07,0h-5.02c-.7,0-.96-.57-.59-1.27,.37-.7,1.24-1.26,1.94-1.26h5.03c.7,0,.96,.57,.59,1.26-.37,.7-1.24,1.27-1.94,1.27Zm-15.07,0h-5.03c-.7,0-.96-.57-.59-1.27,.37-.7,1.24-1.26,1.94-1.26h5.02c.7,0,.96,.57,.59,1.26-.37,.7-1.24,1.27-1.94,1.27Zm-15.08,0h-5.02c-.7,0-.96-.57-.59-1.27,.37-.7,1.24-1.26,1.94-1.26h5.02c.7,0,.96,.57,.59,1.26-.37,.7-1.24,1.27-1.94,1.27Zm-15.07,0h-5.02c-.7,0-.96-.57-.59-1.27,.37-.7,1.24-1.26,1.94-1.26h5.03c.7,0,.96,.57,.59,1.26-.37,.7-1.24,1.27-1.94,1.27Zm-15.07,0h-5.03c-.7,0-.96-.57-.59-1.27,.37-.7,1.24-1.26,1.94-1.26h5.02c.7,0,.96,.57,.59,1.26-.37,.7-1.24,1.27-1.94,1.27Zm-15.08,0h-5.03c-.7,0-.96-.57-.58-1.27,.37-.7,1.24-1.26,1.94-1.26h5.03c.7,0,.96,.57,.59,1.26-.37,.7-1.24,1.27-1.94,1.27Zm-15.07,0h-5.03c-.7,0-.96-.57-.58-1.27,.37-.7,1.24-1.26,1.94-1.26h5.03c.7,0,.96,.57,.59,1.26-.37,.7-1.24,1.27-1.94,1.27Z"/><path class="cls-2" d="M1105.72,1285.54c-.7,0-.96-.57-.59-1.26l.68-1.26h-1.26c-.7,0-.96-.57-.59-1.27,.37-.7,1.24-1.26,1.94-1.26h3.79l-2.03,3.8c-.37,.7-1.24,1.26-1.94,1.26Z"/><path class="cls-2" d="M1066.45,1358.71c-.7,0-.96-.57-.59-1.26l2.62-4.88c.38-.7,1.25-1.27,1.94-1.27s.96,.57,.59,1.27l-2.62,4.88c-.37,.7-1.24,1.26-1.94,1.26Zm7.85-14.63c-.7,0-.96-.57-.59-1.26l2.62-4.88c.37-.7,1.25-1.26,1.94-1.26s.96,.56,.59,1.26l-2.62,4.88c-.37,.7-1.24,1.26-1.94,1.26Zm7.85-14.64c-.7,0-.96-.57-.59-1.26l2.62-4.88c.37-.7,1.24-1.26,1.94-1.26s.96,.57,.59,1.26l-2.62,4.88c-.37,.7-1.24,1.26-1.94,1.26Zm7.86-14.64c-.7,0-.96-.57-.59-1.26l2.62-4.88c.37-.7,1.24-1.26,1.94-1.26s.96,.57,.59,1.26l-2.62,4.88c-.38,.7-1.24,1.26-1.94,1.26Zm7.85-14.63c-.7,0-.96-.56-.59-1.26l2.62-4.88c.37-.7,1.24-1.26,1.94-1.26s.96,.57,.58,1.26l-2.62,4.88c-.37,.7-1.24,1.26-1.94,1.26Z"/></g></g><polygon class="cls-2" points="892.11 1377.86 885.42 1397.59 891.58 1392.09 892.03 1395.72 896.66 1393.5 896.21 1389.87 903.03 1388.95 892.11 1377.86"/><g><polygon class="cls-11" points="732.64 1666.77 534.32 1666.77 640.76 1468.45 839.08 1468.45 732.64 1666.77"/><polygon points="533.18 1668.9 532.2 1666.77 840.21 1466.33 841.2 1468.45 533.18 1668.9"/><polygon points="731.5 1668.9 638.64 1468.45 641.9 1466.33 734.76 1666.77 731.5 1668.9"/><g><g><path d="M727.45,1670.77c-4.92,0-5.03-1.06-4.41-2.21,.59-1.09,1.85-2.21,6.79-2.21s5,1.12,4.41,2.21c-.62,1.15-1.87,2.21-6.79,2.21Z"/><path d="M711.04,1670.77c-4.92,0-5.03-1.06-4.41-2.21,.59-1.09,1.85-2.21,6.79-2.21s5,1.12,4.42,2.21c-.62,1.15-1.87,2.21-6.79,2.21Z"/><path d="M694.63,1670.77c-4.92,0-5.03-1.06-4.41-2.21,.59-1.09,1.85-2.21,6.79-2.21s5,1.12,4.41,2.21c-.62,1.15-1.87,2.21-6.79,2.21Z"/><path d="M678.21,1670.77c-4.92,0-5.03-1.06-4.41-2.21,.59-1.09,1.85-2.21,6.79-2.21s5.01,1.12,4.42,2.21c-.62,1.15-1.87,2.21-6.79,2.21Z"/><path d="M661.81,1670.77c-4.93,0-5.04-1.06-4.42-2.21,.59-1.09,1.86-2.21,6.79-2.21s5,1.12,4.41,2.21c-.62,1.15-1.87,2.21-6.78,2.21Z"/><path d="M645.39,1670.77c-4.93,0-5.04-1.06-4.42-2.21,.59-1.09,1.86-2.21,6.79-2.21s5,1.12,4.41,2.21c-.62,1.15-1.87,2.21-6.79,2.21Z"/><path d="M628.98,1670.77c-4.92,0-5.04-1.06-4.42-2.21,.59-1.09,1.86-2.21,6.8-2.21s5,1.12,4.41,2.21c-.62,1.15-1.87,2.21-6.79,2.21Z"/><path d="M612.56,1670.77c-4.93,0-5.04-1.06-4.42-2.21,.59-1.09,1.86-2.21,6.8-2.21s5,1.12,4.41,2.21c-.62,1.15-1.87,2.21-6.79,2.21Z"/><path d="M596.15,1670.77c-4.93,0-5.04-1.06-4.42-2.21,.59-1.09,1.86-2.21,6.8-2.21s5,1.12,4.41,2.21c-.62,1.15-1.87,2.21-6.79,2.21Z"/><path d="M579.74,1670.77c-4.93,0-5.04-1.06-4.42-2.21,.59-1.09,1.86-2.21,6.8-2.21s5,1.12,4.41,2.21c-.62,1.15-1.87,2.21-6.79,2.21Z"/><path d="M563.33,1670.77c-4.93,0-5.04-1.06-4.42-2.21,.59-1.09,1.86-2.21,6.79-2.21s5.01,1.12,4.42,2.21c-.62,1.15-1.87,2.21-6.79,2.21Z"/><path d="M546.91,1670.77c-4.93,0-5.04-1.06-4.42-2.21,.59-1.09,1.86-2.21,6.79-2.21s5.01,1.12,4.42,2.21c-.62,1.15-1.87,2.21-6.79,2.21Z"/><path d="M532.9,1671.57l-.66-.85c-.36,.02-.72,.03-1.07,.04l-2.26,.05,1.51-2.87c.03-.06,.06-.12,.09-.18l-.7-1.51,1.53,.05c2.08-3.45,3.33-3.96,4.29-3.96,1.03,0,1.69,.54-.06,4.17,1.49,.23,2.41,.76,1.71,2.05-.69,1.29-2.16,1.82-3.88,2.05l-.52,.96Z"/><path d="M538.43,1657.14c-1.09,0-1.86-.67,.79-5.61,2.65-4.94,4.13-5.61,5.22-5.61s1.85,.68-.8,5.61c-2.64,4.92-4.07,5.61-5.22,5.61Z"/><path d="M547.24,1640.73c-1.1,0-1.86-.67,.79-5.61,2.65-4.94,4.13-5.61,5.22-5.61s1.85,.68-.8,5.61c-2.65,4.92-4.07,5.61-5.22,5.61Z"/><path d="M556.05,1624.31c-1.1,0-1.86-.67,.79-5.61,2.65-4.94,4.13-5.61,5.22-5.61s1.85,.68-.8,5.61c-2.64,4.92-4.07,5.61-5.22,5.61Z"/><path d="M564.86,1607.89c-1.1,0-1.86-.66,.79-5.61,2.65-4.93,4.13-5.61,5.22-5.61s1.85,.68-.8,5.61c-2.64,4.93-4.07,5.61-5.22,5.61Z"/><path d="M573.67,1591.49c-1.1,0-1.86-.67,.79-5.61,2.65-4.94,4.13-5.61,5.22-5.61s1.85,.68-.8,5.61c-2.64,4.93-4.07,5.61-5.22,5.61Z"/><path d="M582.48,1575.07c-1.1,0-1.86-.66,.79-5.61,2.65-4.93,4.13-5.61,5.22-5.61s1.85,.68-.8,5.61c-2.64,4.93-4.07,5.61-5.22,5.61Z"/><path d="M591.29,1558.66c-1.1,0-1.86-.66,.79-5.61,2.65-4.93,4.13-5.6,5.22-5.6,1.15,0,1.85,.68-.79,5.6-2.64,4.93-4.07,5.61-5.22,5.61Z"/><path d="M600.09,1542.24c-1.1,0-1.86-.66,.79-5.61,2.65-4.94,4.13-5.6,5.22-5.6,1.15,0,1.85,.68-.79,5.6-2.64,4.93-4.07,5.61-5.22,5.61Z"/><path d="M608.9,1525.83c-1.1,0-1.86-.66,.79-5.61,2.65-4.93,4.13-5.6,5.22-5.6,1.15,0,1.85,.68-.79,5.6-2.64,4.93-4.07,5.61-5.22,5.61Z"/><path d="M617.71,1509.42c-1.1,0-1.86-.66,.79-5.61,2.65-4.93,4.13-5.6,5.22-5.6,1.15,0,1.85,.68-.79,5.6-2.64,4.93-4.07,5.61-5.22,5.61Z"/><path d="M626.52,1493c-1.1,0-1.86-.67,.79-5.61,2.65-4.94,4.13-5.6,5.22-5.6s1.85,.68-.8,5.6c-2.64,4.93-4.07,5.61-5.22,5.61Z"/><path d="M635.33,1476.59c-1.1,0-1.86-.66,.79-5.61,.08-.15,.17-.31,.25-.46l-2.33,.36,3.48-2.29c.17-.26,.34-.51,.5-.74l1.46-2.06,1.71,.32s.06,0,.08,.01l1.76-1.15-.58,1.59c.37,.29,.56,.76,.15,1.53-.3,.55-.75,.96-1.24,1.25-.24,.51-.52,1.05-.82,1.62-2.65,4.93-4.07,5.61-5.22,5.61Z"/><path d="M652.23,1470.33c-4.94,0-5.01-1.12-4.42-2.21,.62-1.15,1.87-2.21,6.79-2.21s5.03,1.06,4.41,2.21c-.59,1.09-1.85,2.21-6.79,2.21Z"/><path d="M668.64,1470.33c-4.93,0-5-1.12-4.41-2.21,.62-1.15,1.87-2.21,6.78-2.21s5.04,1.06,4.42,2.21c-.59,1.09-1.86,2.21-6.8,2.21Z"/><path d="M685.05,1470.33c-4.94,0-5-1.12-4.41-2.21,.62-1.15,1.87-2.21,6.79-2.21s5.04,1.06,4.42,2.21c-.59,1.09-1.86,2.21-6.8,2.21Z"/><path d="M701.46,1470.33c-4.94,0-5-1.12-4.41-2.21,.62-1.15,1.87-2.21,6.78-2.21s5.04,1.06,4.42,2.21c-.59,1.09-1.86,2.21-6.79,2.21Z"/><path d="M717.88,1470.33c-4.94,0-5-1.12-4.41-2.21,.62-1.15,1.87-2.21,6.79-2.21s5.04,1.06,4.42,2.21c-.59,1.09-1.86,2.21-6.79,2.21Z"/><path d="M734.29,1470.33c-4.94,0-5.01-1.12-4.42-2.21,.62-1.15,1.87-2.21,6.79-2.21s5.04,1.06,4.42,2.21c-.59,1.09-1.86,2.21-6.79,2.21Z"/><path d="M750.7,1470.33c-4.94,0-5.01-1.12-4.42-2.21,.62-1.15,1.87-2.21,6.79-2.21s5.04,1.06,4.42,2.21c-.59,1.09-1.86,2.21-6.79,2.21Z"/><path d="M767.12,1470.33c-4.94,0-5.01-1.12-4.42-2.21,.62-1.15,1.87-2.21,6.79-2.21s5.04,1.06,4.42,2.21c-.59,1.09-1.86,2.21-6.8,2.21Z"/><path d="M783.53,1470.33c-4.94,0-5-1.12-4.41-2.21,.62-1.15,1.87-2.21,6.79-2.21s5.04,1.06,4.42,2.21c-.59,1.09-1.86,2.21-6.8,2.21Z"/><path d="M799.94,1470.33c-4.94,0-5-1.12-4.41-2.21,.62-1.15,1.87-2.21,6.79-2.21s5.04,1.06,4.42,2.21c-.59,1.09-1.86,2.21-6.8,2.21Z"/><path d="M816.35,1470.33c-4.94,0-5-1.12-4.41-2.21,.62-1.15,1.87-2.21,6.79-2.21s5.04,1.06,4.42,2.21c-.59,1.09-1.86,2.21-6.8,2.21Z"/><path d="M832.77,1470.33c-4.93,0-5-1.12-4.41-2.21,.62-1.15,1.87-2.21,6.79-2.21s5.04,1.06,4.42,2.21c-.59,1.09-1.86,2.21-6.8,2.21Z"/><path d="M831.92,1483.77c-1.15,0-1.85-.68,.8-5.61,2.64-4.92,4.07-5.61,5.22-5.61s1.86,.67-.79,5.61c-2.65,4.94-4.13,5.61-5.22,5.61Z"/><path d="M823.11,1500.19c-1.15,0-1.85-.68,.8-5.61,2.64-4.93,4.07-5.61,5.22-5.61s1.86,.66-.79,5.61c-2.65,4.93-4.13,5.61-5.22,5.61Z"/><path d="M814.3,1516.6c-1.15,0-1.85-.68,.8-5.61,2.64-4.93,4.07-5.61,5.22-5.61s1.86,.66-.79,5.61c-2.65,4.93-4.13,5.61-5.22,5.61Z"/><path d="M805.49,1533.01c-1.15,0-1.85-.68,.8-5.61,2.64-4.93,4.07-5.61,5.22-5.61s1.86,.66-.79,5.61c-2.65,4.94-4.13,5.61-5.22,5.61Z"/><path d="M796.68,1549.42c-1.15,0-1.85-.68,.8-5.61,2.64-4.93,4.07-5.61,5.22-5.61s1.86,.66-.79,5.61c-2.65,4.93-4.13,5.61-5.22,5.61Z"/><path d="M787.87,1565.84c-1.15,0-1.85-.68,.8-5.61,2.64-4.93,4.07-5.61,5.22-5.61s1.86,.66-.79,5.61c-2.65,4.93-4.13,5.61-5.22,5.61Z"/><path d="M779.07,1582.25c-1.15,0-1.85-.68,.8-5.61,2.64-4.93,4.07-5.61,5.22-5.61s1.86,.66-.79,5.61c-2.65,4.94-4.13,5.61-5.22,5.61Z"/><path d="M770.26,1598.66c-1.15,0-1.85-.68,.8-5.61,2.64-4.93,4.07-5.61,5.22-5.61s1.86,.66-.79,5.61c-2.65,4.93-4.13,5.61-5.22,5.61Z"/><path d="M761.45,1615.08c-1.15,0-1.85-.68,.8-5.61,2.64-4.93,4.07-5.61,5.22-5.61s1.86,.67-.79,5.61c-2.65,4.93-4.13,5.61-5.22,5.61Z"/><path d="M752.64,1631.48c-1.15,0-1.85-.68,.8-5.6,2.64-4.93,4.07-5.61,5.22-5.61s1.86,.67-.79,5.61c-2.65,4.94-4.13,5.6-5.22,5.6Z"/><path d="M743.83,1647.9c-1.15,0-1.85-.68,.8-5.61,2.64-4.93,4.07-5.61,5.22-5.61s1.86,.67-.79,5.61c-2.65,4.93-4.13,5.61-5.22,5.61Z"/><path d="M735.02,1664.31c-1.15,0-1.85-.68,.79-5.6,2.65-4.93,4.07-5.61,5.22-5.61s1.86,.67-.79,5.61c-2.65,4.94-4.13,5.6-5.22,5.6Z"/></g><g><polygon points="737.27 1673.95 722.43 1673.95 730.39 1659.1 745.24 1659.1 737.27 1673.95"/><path d="M737.97,1675.45h-17.85l9.58-17.84h17.85l-9.58,17.84Zm-13.24-3.01h11.85l6.35-11.84h-11.85l-6.35,11.84Z"/></g><g><polygon points="535.74 1675.98 520.89 1675.98 528.86 1661.14 543.71 1661.14 535.74 1675.98"/><path d="M536.44,1677.48h-17.85l9.58-17.85h17.85l-9.58,17.85Zm-13.24-3h11.85l6.35-11.84h-11.85l-6.35,11.84Z"/></g><g><polygon points="844.53 1474.09 829.69 1474.09 837.66 1459.25 852.5 1459.25 844.53 1474.09"/><path d="M845.23,1475.6h-17.85l9.58-17.85h17.85l-9.58,17.85Zm-13.24-3h11.85l6.36-11.85h-11.85l-6.36,11.85Z"/></g><g><polygon points="643.32 1475.54 628.47 1475.54 636.44 1460.69 651.28 1460.69 643.32 1475.54"/><path d="M644.01,1477.04h-17.85l9.58-17.84h17.85l-9.58,17.84Zm-13.24-3h11.85l6.35-11.84h-11.85l-6.35,11.84Z"/></g></g></g><g><polygon class="cls-11" points="970.9 1619.16 819.31 1619.16 900.67 1467.57 1052.26 1467.57 970.9 1619.16"/><polygon class="cls-10" points="837.77 1608.77 929.37 1520.76 925.98 1576.33 960.33 1546.93 963.61 1608.4 837.77 1608.77"/><path class="cls-2" d="M973.07,1510.5c-2.96,5.42-9.73,9.77-15.12,9.72-5.39-.05-7.36-4.49-4.4-9.9,2.96-5.42,9.73-9.77,15.12-9.72,5.39,.05,7.36,4.49,4.4,9.9Z"/><polygon class="cls-2" points="835.51 1609.52 834.87 1608.13 1036.06 1477.21 1036.7 1478.6 835.51 1609.52"/><polygon class="cls-2" points="965.05 1609.52 904.39 1478.6 906.52 1477.21 967.18 1608.13 965.05 1609.52"/><g><g><path class="cls-2" d="M962.4,1610.75c-3.21,0-3.28-.69-2.88-1.45,.38-.72,1.21-1.45,4.43-1.45s3.27,.73,2.88,1.45c-.4,.76-1.22,1.45-4.44,1.45Z"/><path class="cls-2" d="M951.68,1610.75c-3.21,0-3.29-.69-2.88-1.45,.39-.72,1.21-1.45,4.44-1.45s3.27,.73,2.88,1.45c-.4,.76-1.22,1.45-4.44,1.45Z"/><path class="cls-2" d="M940.96,1610.75c-3.21,0-3.28-.69-2.88-1.45,.38-.72,1.21-1.45,4.43-1.45s3.27,.73,2.88,1.45c-.4,.76-1.22,1.45-4.44,1.45Z"/><path class="cls-2" d="M930.24,1610.75c-3.21,0-3.29-.69-2.88-1.45,.38-.72,1.21-1.45,4.44-1.45s3.27,.73,2.88,1.45c-.4,.76-1.22,1.45-4.44,1.45Z"/><path class="cls-2" d="M919.52,1610.75c-3.22,0-3.29-.69-2.89-1.45,.38-.72,1.21-1.45,4.44-1.45s3.26,.73,2.88,1.45c-.4,.76-1.22,1.45-4.43,1.45Z"/><path class="cls-2" d="M908.8,1610.75c-3.22,0-3.29-.69-2.89-1.45,.39-.72,1.21-1.45,4.44-1.45s3.27,.73,2.88,1.45c-.4,.76-1.22,1.45-4.43,1.45Z"/><path class="cls-2" d="M898.08,1610.75c-3.22,0-3.29-.69-2.89-1.45,.38-.72,1.21-1.45,4.44-1.45s3.26,.73,2.88,1.45c-.4,.76-1.22,1.45-4.43,1.45Z"/><path class="cls-2" d="M887.36,1610.75c-3.22,0-3.29-.69-2.89-1.45,.39-.72,1.21-1.45,4.44-1.45s3.27,.73,2.88,1.45c-.4,.76-1.22,1.45-4.43,1.45Z"/><path class="cls-2" d="M876.64,1610.75c-3.22,0-3.29-.69-2.89-1.45,.38-.72,1.21-1.45,4.44-1.45s3.27,.73,2.88,1.45c-.4,.76-1.22,1.45-4.44,1.45Z"/><path class="cls-2" d="M865.92,1610.75c-3.22,0-3.29-.69-2.88-1.45,.38-.72,1.21-1.45,4.44-1.45s3.27,.73,2.88,1.45c-.4,.76-1.22,1.45-4.44,1.45Z"/><path class="cls-2" d="M855.2,1610.75c-3.22,0-3.29-.69-2.89-1.45,.38-.72,1.21-1.45,4.44-1.45s3.27,.73,2.88,1.45c-.4,.76-1.22,1.45-4.44,1.45Z"/><path class="cls-2" d="M844.48,1610.75c-3.22,0-3.29-.69-2.89-1.45,.38-.72,1.21-1.45,4.44-1.45s3.27,.73,2.89,1.45c-.4,.76-1.22,1.45-4.44,1.45Z"/><path class="cls-2" d="M835.32,1611.27l-.43-.55c-.23,.01-.47,.02-.7,.03l-1.47,.03,.99-1.88s.05-.08,.06-.12l-.46-.98,1,.03c1.36-2.25,2.17-2.58,2.81-2.58,.67,0,1.1,.35-.04,2.72,.98,.15,1.57,.5,1.12,1.34-.45,.84-1.41,1.19-2.53,1.34l-.34,.62Z"/><path class="cls-2" d="M838.94,1601.84c-.72,0-1.21-.44,.52-3.66,1.73-3.23,2.7-3.67,3.41-3.67,.75,0,1.21,.45-.52,3.67-1.73,3.22-2.66,3.66-3.41,3.66Z"/><path class="cls-2" d="M844.69,1591.12c-.72,0-1.21-.44,.52-3.66,1.73-3.22,2.7-3.66,3.41-3.66s1.2,.44-.52,3.66c-1.73,3.22-2.66,3.66-3.41,3.66Z"/><path class="cls-2" d="M850.45,1580.4c-.72,0-1.21-.44,.52-3.67,1.73-3.22,2.7-3.66,3.41-3.66,.75,0,1.21,.44-.52,3.66-1.73,3.22-2.66,3.67-3.41,3.67Z"/><path class="cls-2" d="M856.2,1569.68c-.72,0-1.21-.44,.52-3.66,1.73-3.23,2.7-3.66,3.41-3.66,.75,0,1.2,.44-.52,3.66-1.73,3.22-2.66,3.66-3.41,3.66Z"/><path class="cls-2" d="M861.95,1558.96c-.72,0-1.21-.44,.52-3.66,1.73-3.22,2.7-3.67,3.41-3.67,.75,0,1.21,.45-.52,3.67-1.73,3.22-2.66,3.66-3.41,3.66Z"/><path class="cls-2" d="M867.71,1548.24c-.72,0-1.21-.44,.52-3.67,1.73-3.22,2.7-3.66,3.41-3.66,.75,0,1.2,.44-.52,3.66-1.73,3.22-2.66,3.67-3.41,3.67Z"/><path class="cls-2" d="M873.46,1537.52c-.72,0-1.21-.44,.52-3.67,1.73-3.22,2.7-3.65,3.41-3.65,.75,0,1.2,.44-.52,3.65-1.73,3.22-2.66,3.67-3.41,3.67Z"/><path class="cls-2" d="M879.22,1526.79c-.72,0-1.21-.44,.52-3.66,1.73-3.23,2.7-3.66,3.41-3.66s1.2,.44-.52,3.66c-1.73,3.22-2.66,3.66-3.41,3.66Z"/><path class="cls-2" d="M884.97,1516.07c-.72,0-1.21-.44,.52-3.66,1.73-3.22,2.7-3.66,3.41-3.66,.75,0,1.21,.44-.52,3.66-1.73,3.22-2.66,3.66-3.41,3.66Z"/><path class="cls-2" d="M890.72,1505.35c-.72,0-1.21-.44,.52-3.67,1.73-3.22,2.7-3.66,3.41-3.66s1.2,.45-.52,3.66c-1.73,3.22-2.66,3.67-3.41,3.67Z"/><path class="cls-2" d="M896.48,1494.63c-.72,0-1.21-.44,.52-3.67,1.73-3.22,2.69-3.65,3.41-3.65,.75,0,1.21,.44-.52,3.65-1.73,3.22-2.66,3.67-3.41,3.67Z"/><path class="cls-2" d="M913.27,1479.82c-3.22,0-3.27-.74-2.88-1.45,.4-.75,1.22-1.44,4.43-1.44s3.29,.69,2.88,1.44c-.38,.72-1.21,1.45-4.44,1.45Z"/><path class="cls-2" d="M923.99,1479.82c-3.23,0-3.26-.74-2.88-1.45,.4-.75,1.22-1.44,4.43-1.44s3.29,.69,2.89,1.44c-.39,.72-1.21,1.45-4.44,1.45Z"/><path class="cls-2" d="M934.71,1479.82c-3.23,0-3.27-.74-2.88-1.45,.4-.75,1.22-1.44,4.43-1.44s3.29,.69,2.89,1.44c-.38,.72-1.21,1.45-4.44,1.45Z"/><path class="cls-2" d="M945.43,1479.82c-3.23,0-3.27-.74-2.88-1.45,.4-.75,1.22-1.44,4.43-1.44s3.29,.69,2.89,1.44c-.38,.72-1.21,1.45-4.44,1.45Z"/><path class="cls-2" d="M956.15,1479.82c-3.23,0-3.27-.74-2.88-1.45,.4-.75,1.22-1.44,4.43-1.44s3.29,.69,2.89,1.44c-.38,.72-1.21,1.45-4.44,1.45Z"/><path class="cls-2" d="M966.87,1479.82c-3.23,0-3.27-.74-2.89-1.45,.4-.75,1.22-1.44,4.44-1.44s3.29,.69,2.89,1.44c-.38,.72-1.21,1.45-4.44,1.45Z"/><path class="cls-2" d="M977.59,1479.82c-3.23,0-3.27-.74-2.88-1.45,.4-.75,1.22-1.44,4.44-1.44s3.29,.69,2.89,1.44c-.39,.72-1.21,1.45-4.44,1.45Z"/><path class="cls-2" d="M988.31,1479.82c-3.22,0-3.27-.74-2.88-1.45,.4-.75,1.22-1.44,4.44-1.44s3.29,.69,2.89,1.44c-.38,.72-1.21,1.45-4.44,1.45Z"/><path class="cls-2" d="M999.03,1479.82c-3.23,0-3.27-.74-2.88-1.45,.4-.75,1.22-1.44,4.44-1.44s3.29,.69,2.89,1.44c-.38,.72-1.21,1.45-4.44,1.45Z"/><path class="cls-2" d="M1009.75,1479.82c-3.22,0-3.27-.74-2.88-1.45,.4-.75,1.22-1.44,4.44-1.44s3.29,.69,2.89,1.44c-.38,.72-1.21,1.45-4.44,1.45Z"/><path class="cls-2" d="M1020.48,1479.82c-3.23,0-3.27-.74-2.88-1.45,.4-.75,1.22-1.44,4.44-1.44s3.29,.69,2.89,1.44c-.38,.72-1.21,1.45-4.44,1.45Z"/><path class="cls-2" d="M1031.19,1479.82c-3.22,0-3.27-.74-2.88-1.45,.4-.75,1.22-1.44,4.44-1.44s3.29,.69,2.89,1.44c-.38,.72-1.21,1.45-4.44,1.45Z"/><path class="cls-2" d="M1030.64,1488.6c-.75,0-1.21-.44,.52-3.66,1.73-3.22,2.66-3.67,3.41-3.67s1.21,.44-.52,3.67c-1.73,3.22-2.7,3.66-3.41,3.66Z"/><path class="cls-2" d="M1024.89,1499.32c-.75,0-1.2-.44,.52-3.66,1.73-3.22,2.66-3.67,3.41-3.67s1.21,.44-.51,3.67c-1.73,3.22-2.7,3.66-3.42,3.66Z"/><path class="cls-2" d="M1019.13,1510.04c-.75,0-1.21-.44,.52-3.67,1.73-3.22,2.66-3.66,3.41-3.66s1.21,.44-.52,3.66c-1.73,3.23-2.7,3.67-3.41,3.67Z"/><path class="cls-2" d="M1013.38,1520.76c-.75,0-1.2-.44,.52-3.66,1.73-3.22,2.66-3.66,3.41-3.66s1.21,.44-.52,3.66c-1.73,3.22-2.7,3.66-3.41,3.66Z"/><path class="cls-2" d="M1007.62,1531.48c-.75,0-1.2-.44,.52-3.66,1.73-3.22,2.66-3.66,3.41-3.66s1.21,.44-.52,3.66c-1.73,3.22-2.7,3.66-3.41,3.66Z"/><path class="cls-2" d="M1001.87,1542.2c-.75,0-1.21-.44,.52-3.66,1.73-3.22,2.66-3.66,3.41-3.66s1.21,.44-.52,3.66c-1.73,3.22-2.7,3.66-3.41,3.66Z"/><path class="cls-2" d="M996.12,1552.93c-.75,0-1.2-.45,.52-3.67,1.73-3.22,2.66-3.66,3.41-3.66s1.21,.44-.51,3.66c-1.73,3.23-2.7,3.67-3.42,3.67Z"/><path class="cls-2" d="M990.36,1563.64c-.75,0-1.2-.44,.52-3.66,1.73-3.22,2.66-3.66,3.41-3.66s1.21,.44-.52,3.66c-1.73,3.22-2.7,3.66-3.41,3.66Z"/><path class="cls-2" d="M984.61,1574.37c-.75,0-1.2-.44,.52-3.66,1.73-3.22,2.66-3.66,3.41-3.66s1.21,.44-.51,3.66c-1.73,3.22-2.7,3.66-3.41,3.66Z"/><path class="cls-2" d="M978.86,1585.08c-.75,0-1.2-.44,.52-3.66,1.73-3.22,2.66-3.66,3.41-3.66s1.21,.44-.52,3.66c-1.73,3.23-2.7,3.66-3.41,3.66Z"/><path class="cls-2" d="M973.1,1595.81c-.75,0-1.21-.44,.52-3.67,1.73-3.22,2.66-3.66,3.41-3.66s1.21,.44-.52,3.66c-1.73,3.23-2.7,3.67-3.41,3.67Z"/><path class="cls-2" d="M967.35,1606.53c-.75,0-1.2-.44,.52-3.66,1.73-3.22,2.66-3.67,3.41-3.67s1.21,.44-.52,3.67c-1.73,3.22-2.7,3.66-3.41,3.66Z"/></g><g><polygon class="cls-2" points="968.82 1612.82 959.12 1612.82 964.33 1603.13 974.02 1603.13 968.82 1612.82"/><path class="cls-2" d="M969.27,1613.8h-11.66l6.26-11.65h11.66l-6.25,11.65Zm-8.65-1.96h7.74l4.15-7.73h-7.74l-4.15,7.73Z"/></g><g><polygon class="cls-2" points="837.18 1614.15 827.48 1614.15 832.69 1604.45 842.38 1604.45 837.18 1614.15"/><path class="cls-2" d="M837.64,1615.13h-11.66l6.26-11.65h11.66l-6.26,11.65Zm-8.65-1.96h7.74l4.15-7.73h-7.74l-4.15,7.73Z"/></g><g><polygon class="cls-2" points="1038.88 1482.28 1029.19 1482.28 1034.39 1472.58 1044.09 1472.58 1038.88 1482.28"/><path class="cls-2" d="M1039.34,1483.26h-11.66l6.26-11.66h11.66l-6.26,11.66Zm-8.65-1.96h7.74l4.15-7.73h-7.74l-4.15,7.73Z"/></g><g><polygon class="cls-2" points="907.45 1483.22 897.75 1483.22 902.96 1473.53 912.65 1473.53 907.45 1483.22"/><path class="cls-2" d="M907.9,1484.2h-11.66l6.26-11.65h11.66l-6.26,11.65Zm-8.65-1.96h7.74l4.15-7.73h-7.74l-4.15,7.73Z"/></g></g></g><g><polygon class="cls-11" points="1165.89 1619.16 1014.3 1619.16 1095.66 1467.57 1247.25 1467.57 1165.89 1619.16"/><polygon class="cls-10" points="1032.76 1608.77 1124.36 1520.76 1120.97 1576.33 1155.32 1546.93 1158.6 1608.4 1032.76 1608.77"/><path class="cls-2" d="M1168.06,1510.5c-2.96,5.42-9.73,9.77-15.12,9.72-5.39-.05-7.36-4.49-4.4-9.9,2.96-5.42,9.73-9.77,15.12-9.72,5.39,.05,7.36,4.49,4.4,9.9Z"/><polygon class="cls-2" points="1030.5 1609.52 1029.86 1608.13 1231.05 1477.21 1231.69 1478.6 1030.5 1609.52"/><polygon class="cls-2" points="1160.04 1609.52 1099.38 1478.6 1101.51 1477.21 1162.17 1608.13 1160.04 1609.52"/><g><g><path class="cls-2" d="M1157.39,1610.75c-3.21,0-3.28-.69-2.88-1.45,.38-.72,1.21-1.45,4.43-1.45s3.27,.73,2.88,1.45c-.4,.76-1.22,1.45-4.44,1.45Z"/><path class="cls-2" d="M1146.67,1610.75c-3.22,0-3.29-.69-2.88-1.45,.38-.72,1.21-1.45,4.43-1.45s3.27,.73,2.89,1.45c-.4,.76-1.22,1.45-4.44,1.45Z"/><path class="cls-2" d="M1135.95,1610.75c-3.21,0-3.28-.69-2.88-1.45,.38-.72,1.21-1.45,4.43-1.45s3.27,.73,2.88,1.45c-.4,.76-1.22,1.45-4.44,1.45Z"/><path class="cls-2" d="M1125.23,1610.75c-3.22,0-3.29-.69-2.88-1.45,.38-.72,1.21-1.45,4.44-1.45s3.27,.73,2.88,1.45c-.4,.76-1.22,1.45-4.44,1.45Z"/><path class="cls-2" d="M1114.51,1610.75c-3.22,0-3.29-.69-2.89-1.45,.38-.72,1.21-1.45,4.44-1.45s3.27,.73,2.88,1.45c-.4,.76-1.22,1.45-4.43,1.45Z"/><path class="cls-2" d="M1103.79,1610.75c-3.22,0-3.29-.69-2.89-1.45,.38-.72,1.21-1.45,4.44-1.45s3.27,.73,2.88,1.45c-.4,.76-1.22,1.45-4.43,1.45Z"/><path class="cls-2" d="M1093.07,1610.75c-3.22,0-3.29-.69-2.89-1.45,.38-.72,1.21-1.45,4.44-1.45s3.27,.73,2.88,1.45c-.4,.76-1.22,1.45-4.43,1.45Z"/><path class="cls-2" d="M1082.35,1610.75c-3.22,0-3.29-.69-2.89-1.45,.38-.72,1.21-1.45,4.44-1.45s3.27,.73,2.88,1.45c-.4,.76-1.22,1.45-4.43,1.45Z"/><path class="cls-2" d="M1071.63,1610.75c-3.22,0-3.29-.69-2.89-1.45,.38-.72,1.21-1.45,4.44-1.45s3.27,.73,2.88,1.45c-.4,.76-1.22,1.45-4.43,1.45Z"/><path class="cls-2" d="M1060.91,1610.75c-3.22,0-3.29-.69-2.89-1.45,.38-.72,1.21-1.45,4.44-1.45s3.27,.73,2.88,1.45c-.4,.76-1.22,1.45-4.44,1.45Z"/><path class="cls-2" d="M1050.19,1610.75c-3.22,0-3.29-.69-2.89-1.45,.38-.72,1.21-1.45,4.44-1.45s3.27,.73,2.89,1.45c-.4,.76-1.22,1.45-4.44,1.45Z"/><path class="cls-2" d="M1039.47,1610.75c-3.22,0-3.29-.69-2.88-1.45,.38-.72,1.21-1.45,4.44-1.45s3.27,.73,2.88,1.45c-.4,.76-1.22,1.45-4.44,1.45Z"/><path class="cls-2" d="M1030.31,1611.27l-.43-.55c-.23,.01-.47,.02-.7,.03l-1.47,.03,.99-1.88s.04-.08,.06-.12l-.46-.98,1,.03c1.36-2.25,2.17-2.58,2.81-2.58,.67,0,1.1,.35-.04,2.72,.98,.15,1.57,.5,1.12,1.34-.45,.84-1.41,1.19-2.53,1.34l-.34,.62Z"/><path class="cls-2" d="M1033.93,1601.84c-.72,0-1.21-.44,.52-3.66,1.73-3.23,2.7-3.67,3.41-3.67,.75,0,1.2,.45-.52,3.67-1.73,3.22-2.66,3.66-3.41,3.66Z"/><path class="cls-2" d="M1039.68,1591.12c-.72,0-1.21-.44,.52-3.66,1.73-3.22,2.7-3.66,3.42-3.66s1.2,.44-.52,3.66c-1.73,3.22-2.66,3.66-3.41,3.66Z"/><path class="cls-2" d="M1045.44,1580.4c-.72,0-1.21-.44,.52-3.67,1.73-3.22,2.7-3.66,3.41-3.66,.75,0,1.2,.44-.52,3.66-1.73,3.22-2.66,3.67-3.41,3.67Z"/><path class="cls-2" d="M1051.19,1569.68c-.72,0-1.21-.44,.51-3.66,1.73-3.23,2.7-3.66,3.41-3.66s1.2,.44-.52,3.66c-1.73,3.22-2.66,3.66-3.41,3.66Z"/><path class="cls-2" d="M1056.94,1558.96c-.72,0-1.21-.44,.52-3.66,1.73-3.22,2.7-3.67,3.41-3.67,.75,0,1.21,.45-.52,3.67-1.73,3.22-2.66,3.66-3.41,3.66Z"/><path class="cls-2" d="M1062.7,1548.24c-.72,0-1.21-.44,.52-3.67,1.73-3.22,2.7-3.66,3.41-3.66s1.2,.44-.52,3.66c-1.73,3.22-2.66,3.67-3.41,3.67Z"/><path class="cls-2" d="M1068.45,1537.52c-.72,0-1.21-.44,.52-3.67,1.73-3.22,2.7-3.65,3.41-3.65s1.2,.44-.52,3.65c-1.73,3.22-2.66,3.67-3.41,3.67Z"/><path class="cls-2" d="M1074.21,1526.79c-.72,0-1.21-.44,.52-3.66,1.73-3.23,2.7-3.66,3.41-3.66s1.2,.44-.52,3.66c-1.73,3.22-2.66,3.66-3.41,3.66Z"/><path class="cls-2" d="M1079.96,1516.07c-.72,0-1.21-.44,.52-3.66,1.73-3.22,2.7-3.66,3.41-3.66,.75,0,1.2,.44-.52,3.66s-2.66,3.66-3.41,3.66Z"/><path class="cls-2" d="M1085.71,1505.35c-.72,0-1.21-.44,.52-3.67,1.73-3.22,2.7-3.66,3.41-3.66s1.2,.45-.52,3.66c-1.73,3.22-2.66,3.67-3.41,3.67Z"/><path class="cls-2" d="M1091.47,1494.63c-.72,0-1.21-.44,.51-3.67,1.73-3.22,2.7-3.65,3.41-3.65,.75,0,1.21,.44-.52,3.65-1.73,3.22-2.66,3.67-3.41,3.67Z"/><path class="cls-2" d="M1108.26,1479.82c-3.22,0-3.27-.74-2.88-1.45,.4-.75,1.22-1.44,4.44-1.44s3.28,.69,2.88,1.44c-.38,.72-1.21,1.45-4.44,1.45Z"/><path class="cls-2" d="M1118.98,1479.82c-3.23,0-3.27-.74-2.88-1.45,.4-.75,1.22-1.44,4.43-1.44s3.29,.69,2.89,1.44c-.38,.72-1.21,1.45-4.44,1.45Z"/><path class="cls-2" d="M1129.7,1479.82c-3.23,0-3.27-.74-2.88-1.45,.4-.75,1.22-1.44,4.43-1.44s3.29,.69,2.89,1.44c-.38,.72-1.21,1.45-4.44,1.45Z"/><path class="cls-2" d="M1140.42,1479.82c-3.22,0-3.27-.74-2.88-1.45,.4-.75,1.22-1.44,4.43-1.44s3.29,.69,2.89,1.44c-.38,.72-1.21,1.45-4.44,1.45Z"/><path class="cls-2" d="M1151.14,1479.82c-3.23,0-3.27-.74-2.88-1.45,.4-.75,1.22-1.44,4.43-1.44s3.29,.69,2.89,1.44c-.39,.72-1.21,1.45-4.44,1.45Z"/><path class="cls-2" d="M1161.86,1479.82c-3.22,0-3.27-.74-2.88-1.45,.4-.75,1.22-1.44,4.44-1.44s3.29,.69,2.89,1.44c-.38,.72-1.21,1.45-4.44,1.45Z"/><path class="cls-2" d="M1172.58,1479.82c-3.23,0-3.27-.74-2.88-1.45,.4-.75,1.22-1.44,4.44-1.44s3.29,.69,2.89,1.44c-.38,.72-1.21,1.45-4.44,1.45Z"/><path class="cls-2" d="M1183.3,1479.82c-3.22,0-3.27-.74-2.88-1.45,.4-.75,1.22-1.44,4.44-1.44s3.29,.69,2.89,1.44c-.38,.72-1.22,1.45-4.44,1.45Z"/><path class="cls-2" d="M1194.02,1479.82c-3.23,0-3.27-.74-2.88-1.45,.4-.75,1.22-1.44,4.43-1.44s3.29,.69,2.89,1.44c-.38,.72-1.22,1.45-4.44,1.45Z"/><path class="cls-2" d="M1204.75,1479.82c-3.23,0-3.27-.74-2.88-1.45,.4-.75,1.22-1.44,4.43-1.44s3.29,.69,2.88,1.44c-.38,.72-1.21,1.45-4.43,1.45Z"/><path class="cls-2" d="M1215.46,1479.82c-3.22,0-3.27-.74-2.88-1.45,.4-.75,1.22-1.44,4.44-1.44s3.29,.69,2.88,1.44c-.38,.72-1.21,1.45-4.44,1.45Z"/><path class="cls-2" d="M1226.19,1479.82c-3.22,0-3.27-.74-2.88-1.45,.4-.75,1.22-1.44,4.44-1.44s3.29,.69,2.88,1.44c-.38,.72-1.21,1.45-4.44,1.45Z"/><path class="cls-2" d="M1225.63,1488.6c-.75,0-1.2-.44,.52-3.66,1.73-3.22,2.66-3.67,3.41-3.67,.71,0,1.21,.44-.52,3.67-1.73,3.22-2.7,3.66-3.41,3.66Z"/><path class="cls-2" d="M1219.88,1499.32c-.75,0-1.21-.44,.52-3.66,1.73-3.22,2.66-3.67,3.41-3.67s1.21,.44-.52,3.67c-1.73,3.22-2.7,3.66-3.41,3.66Z"/><path class="cls-2" d="M1214.12,1510.04c-.75,0-1.2-.44,.52-3.67,1.72-3.22,2.66-3.66,3.41-3.66s1.21,.44-.52,3.66c-1.73,3.23-2.7,3.67-3.41,3.67Z"/><path class="cls-2" d="M1208.37,1520.76c-.75,0-1.2-.44,.52-3.66,1.73-3.22,2.66-3.66,3.41-3.66s1.21,.44-.51,3.66c-1.73,3.22-2.7,3.66-3.42,3.66Z"/><path class="cls-2" d="M1202.62,1531.48c-.75,0-1.21-.44,.52-3.66,1.72-3.22,2.66-3.66,3.4-3.66s1.22,.44-.51,3.66c-1.73,3.22-2.7,3.66-3.41,3.66Z"/><path class="cls-2" d="M1196.86,1542.2c-.75,0-1.2-.44,.52-3.66,1.73-3.22,2.66-3.66,3.41-3.66,.72,0,1.21,.44-.52,3.66-1.73,3.22-2.7,3.66-3.41,3.66Z"/><path class="cls-2" d="M1191.11,1552.93c-.75,0-1.2-.45,.52-3.67,1.73-3.22,2.66-3.66,3.41-3.66s1.21,.44-.52,3.66c-1.73,3.23-2.7,3.67-3.41,3.67Z"/><path class="cls-2" d="M1185.35,1563.64c-.75,0-1.2-.44,.52-3.66,1.73-3.22,2.66-3.66,3.41-3.66s1.21,.44-.52,3.66c-1.73,3.22-2.7,3.66-3.41,3.66Z"/><path class="cls-2" d="M1179.6,1574.37c-.75,0-1.2-.44,.52-3.66,1.73-3.22,2.66-3.66,3.41-3.66s1.21,.44-.52,3.66c-1.73,3.22-2.7,3.66-3.41,3.66Z"/><path class="cls-2" d="M1173.85,1585.08c-.75,0-1.2-.44,.52-3.66,1.73-3.22,2.66-3.66,3.41-3.66s1.21,.44-.52,3.66c-1.73,3.23-2.7,3.66-3.41,3.66Z"/><path class="cls-2" d="M1168.09,1595.81c-.75,0-1.21-.44,.52-3.67,1.73-3.22,2.66-3.66,3.41-3.66s1.21,.44-.52,3.66c-1.73,3.23-2.7,3.67-3.41,3.67Z"/><path class="cls-2" d="M1162.34,1606.53c-.75,0-1.21-.44,.52-3.66,1.73-3.22,2.66-3.67,3.41-3.67s1.21,.44-.52,3.67c-1.73,3.22-2.7,3.66-3.41,3.66Z"/></g><g><polygon class="cls-2" points="1163.81 1612.82 1154.11 1612.82 1159.32 1603.13 1169.01 1603.13 1163.81 1612.82"/><path class="cls-2" d="M1164.26,1613.8h-11.66l6.26-11.65h11.66l-6.25,11.65Zm-8.65-1.96h7.74l4.15-7.73h-7.74l-4.15,7.73Z"/></g><g><polygon class="cls-2" points="1032.17 1614.15 1022.47 1614.15 1027.68 1604.45 1037.37 1604.45 1032.17 1614.15"/><path class="cls-2" d="M1032.63,1615.13h-11.66l6.26-11.65h11.66l-6.25,11.65Zm-8.65-1.96h7.74l4.15-7.73h-7.74l-4.15,7.73Z"/></g><g><polygon class="cls-2" points="1233.87 1482.28 1224.17 1482.28 1229.38 1472.58 1239.08 1472.58 1233.87 1482.28"/><path class="cls-2" d="M1234.32,1483.26h-11.66l6.26-11.66h11.65l-6.26,11.66Zm-8.65-1.96h7.74l4.15-7.73h-7.74l-4.15,7.73Z"/></g><g><polygon class="cls-2" points="1102.44 1483.22 1092.74 1483.22 1097.95 1473.53 1107.64 1473.53 1102.44 1483.22"/><path class="cls-2" d="M1102.89,1484.2h-11.66l6.26-11.65h11.66l-6.26,11.65Zm-8.65-1.96h7.74l4.15-7.73h-7.74l-4.15,7.73Z"/></g></g></g><g><polygon class="cls-11" points="1355.77 1617.42 1204.18 1617.42 1285.53 1465.84 1437.12 1465.84 1355.77 1617.42"/><polygon class="cls-10" points="1222.64 1607.03 1299.54 1524.1 1310.85 1574.59 1351.28 1545.83 1348.48 1606.66 1222.64 1607.03"/><path class="cls-2" d="M1357.93,1508.76c-2.96,5.42-9.73,9.77-15.12,9.73-5.4-.05-7.37-4.49-4.41-9.91,2.96-5.42,9.73-9.77,15.12-9.72s7.36,4.49,4.4,9.9Z"/><polygon class="cls-2" points="1220.37 1607.78 1219.73 1606.4 1420.92 1475.47 1421.57 1476.86 1220.37 1607.78"/><polygon class="cls-2" points="1349.92 1607.78 1289.26 1476.86 1291.39 1475.47 1352.04 1606.4 1349.92 1607.78"/><g><g><path class="cls-2" d="M1347.27,1609.01c-3.22,0-3.29-.69-2.88-1.45,.38-.72,1.21-1.45,4.43-1.45s3.27,.73,2.88,1.45c-.4,.76-1.22,1.45-4.43,1.45Z"/><path class="cls-2" d="M1336.55,1609.01c-3.22,0-3.29-.69-2.88-1.45,.38-.72,1.21-1.45,4.43-1.45s3.27,.73,2.88,1.45c-.4,.76-1.22,1.45-4.43,1.45Z"/><path class="cls-2" d="M1325.83,1609.01c-3.21,0-3.28-.69-2.88-1.45,.38-.72,1.21-1.45,4.44-1.45s3.27,.73,2.88,1.45c-.4,.76-1.22,1.45-4.44,1.45Z"/><path class="cls-2" d="M1315.1,1609.01c-3.21,0-3.28-.69-2.88-1.45,.38-.72,1.21-1.45,4.43-1.45s3.27,.73,2.88,1.45c-.4,.76-1.22,1.45-4.44,1.45Z"/><path class="cls-2" d="M1304.39,1609.01c-3.22,0-3.29-.69-2.88-1.45,.38-.72,1.21-1.45,4.44-1.45s3.26,.73,2.88,1.45c-.4,.76-1.22,1.45-4.43,1.45Z"/><path class="cls-2" d="M1293.67,1609.01c-3.22,0-3.29-.69-2.89-1.45,.38-.72,1.22-1.45,4.44-1.45s3.27,.73,2.88,1.45c-.4,.76-1.22,1.45-4.43,1.45Z"/><path class="cls-2" d="M1282.95,1609.01c-3.22,0-3.29-.69-2.89-1.45,.38-.72,1.22-1.45,4.44-1.45s3.27,.73,2.88,1.45c-.4,.76-1.22,1.45-4.43,1.45Z"/><path class="cls-2" d="M1272.23,1609.01c-3.22,0-3.29-.69-2.88-1.45,.38-.72,1.21-1.45,4.44-1.45s3.26,.73,2.88,1.45c-.4,.76-1.22,1.45-4.43,1.45Z"/><path class="cls-2" d="M1261.5,1609.01c-3.22,0-3.29-.69-2.88-1.45,.38-.72,1.21-1.45,4.44-1.45s3.27,.73,2.88,1.45c-.4,.76-1.22,1.45-4.44,1.45Z"/><path class="cls-2" d="M1250.79,1609.01c-3.22,0-3.29-.69-2.89-1.45,.38-.72,1.22-1.45,4.44-1.45s3.27,.73,2.88,1.45c-.4,.76-1.22,1.45-4.43,1.45Z"/><path class="cls-2" d="M1240.06,1609.01c-3.22,0-3.29-.69-2.88-1.45,.38-.72,1.21-1.45,4.43-1.45s3.27,.73,2.88,1.45c-.4,.76-1.22,1.45-4.43,1.45Z"/><path class="cls-2" d="M1229.34,1609.01c-3.22,0-3.29-.69-2.88-1.45,.38-.72,1.21-1.45,4.44-1.45s3.27,.73,2.88,1.45c-.4,.76-1.22,1.45-4.44,1.45Z"/><path class="cls-2" d="M1220.19,1609.53l-.43-.55c-.23,.01-.47,.02-.7,.03l-1.48,.03,.99-1.88s.04-.08,.06-.12l-.46-.98,1,.03c1.35-2.25,2.17-2.58,2.8-2.58,.67,0,1.11,.35-.04,2.73,.98,.14,1.58,.49,1.12,1.33-.45,.84-1.41,1.19-2.53,1.34l-.34,.62Z"/><path class="cls-2" d="M1223.8,1600.1c-.72,0-1.21-.44,.52-3.66,1.73-3.23,2.7-3.67,3.41-3.67s1.21,.45-.52,3.67c-1.73,3.22-2.66,3.66-3.41,3.66Z"/><path class="cls-2" d="M1229.56,1589.38c-.72,0-1.21-.44,.52-3.66,1.73-3.22,2.7-3.66,3.41-3.66s1.2,.44-.52,3.66c-1.72,3.22-2.66,3.66-3.41,3.66Z"/><path class="cls-2" d="M1235.31,1578.66c-.72,0-1.21-.44,.51-3.67,1.73-3.22,2.7-3.66,3.42-3.66s1.2,.44-.52,3.66c-1.73,3.22-2.66,3.67-3.41,3.67Z"/><path class="cls-2" d="M1241.07,1567.94c-.72,0-1.22-.44,.51-3.66,1.73-3.23,2.7-3.67,3.41-3.67,.75,0,1.21,.44-.52,3.67-1.72,3.22-2.66,3.66-3.4,3.66Z"/><path class="cls-2" d="M1246.82,1557.22c-.72,0-1.22-.44,.51-3.66,1.73-3.22,2.7-3.66,3.41-3.66,.75,0,1.2,.44-.52,3.66-1.73,3.22-2.66,3.66-3.41,3.66Z"/><path class="cls-2" d="M1252.57,1546.5c-.72,0-1.21-.44,.52-3.67,1.73-3.22,2.7-3.66,3.41-3.66s1.21,.44-.52,3.66c-1.73,3.22-2.66,3.67-3.41,3.67Z"/><path class="cls-2" d="M1258.33,1535.78c-.72,0-1.21-.44,.52-3.67,1.73-3.22,2.7-3.65,3.41-3.65s1.2,.44-.52,3.65c-1.72,3.22-2.66,3.67-3.41,3.67Z"/><path class="cls-2" d="M1264.08,1525.06c-.72,0-1.21-.44,.51-3.66,1.73-3.23,2.7-3.66,3.41-3.66,.76,0,1.21,.44-.51,3.66-1.73,3.22-2.66,3.66-3.41,3.66Z"/><path class="cls-2" d="M1269.84,1514.33c-.72,0-1.22-.44,.51-3.66,1.73-3.22,2.7-3.66,3.41-3.66s1.2,.44-.52,3.66c-1.72,3.22-2.66,3.66-3.4,3.66Z"/><path class="cls-2" d="M1275.59,1503.62c-.72,0-1.22-.44,.51-3.66,1.73-3.22,2.7-3.66,3.41-3.66s1.2,.45-.52,3.66c-1.73,3.22-2.66,3.66-3.41,3.66Z"/><path class="cls-2" d="M1281.34,1492.89c-.72,0-1.21-.44,.52-3.66,1.73-3.23,2.7-3.66,3.41-3.66s1.2,.44-.52,3.66c-1.73,3.22-2.66,3.66-3.41,3.66Z"/><path class="cls-2" d="M1298.14,1478.08c-3.23,0-3.27-.73-2.88-1.45,.4-.75,1.22-1.44,4.43-1.44s3.29,.69,2.88,1.44c-.38,.72-1.21,1.45-4.43,1.45Z"/><path class="cls-2" d="M1308.85,1478.08c-3.22,0-3.27-.73-2.88-1.45,.4-.75,1.22-1.44,4.43-1.44s3.29,.69,2.89,1.44c-.38,.72-1.22,1.45-4.44,1.45Z"/><path class="cls-2" d="M1319.58,1478.08c-3.23,0-3.27-.73-2.88-1.45,.4-.75,1.22-1.44,4.43-1.44s3.29,.69,2.88,1.44c-.38,.72-1.21,1.45-4.43,1.45Z"/><path class="cls-2" d="M1330.29,1478.08c-3.22,0-3.26-.73-2.88-1.45,.4-.75,1.22-1.44,4.43-1.44s3.29,.69,2.88,1.44c-.38,.72-1.21,1.45-4.44,1.45Z"/><path class="cls-2" d="M1341.02,1478.08c-3.22,0-3.26-.73-2.88-1.45,.4-.75,1.22-1.44,4.43-1.44s3.29,.69,2.89,1.44c-.38,.72-1.22,1.45-4.44,1.45Z"/><path class="cls-2" d="M1351.74,1478.08c-3.23,0-3.27-.73-2.88-1.45,.4-.75,1.22-1.44,4.43-1.44s3.29,.69,2.89,1.44c-.38,.72-1.22,1.45-4.44,1.45Z"/><path class="cls-2" d="M1362.46,1478.08c-3.23,0-3.27-.73-2.89-1.45,.4-.75,1.22-1.44,4.44-1.44s3.29,.69,2.88,1.44c-.38,.72-1.21,1.45-4.43,1.45Z"/><path class="cls-2" d="M1373.18,1478.08c-3.22,0-3.27-.73-2.88-1.45,.4-.75,1.22-1.44,4.44-1.44s3.29,.69,2.88,1.44c-.38,.72-1.21,1.45-4.44,1.45Z"/><path class="cls-2" d="M1383.9,1478.08c-3.22,0-3.27-.73-2.88-1.45,.4-.75,1.22-1.44,4.43-1.44s3.29,.69,2.89,1.44c-.38,.72-1.22,1.45-4.44,1.45Z"/><path class="cls-2" d="M1394.62,1478.08c-3.23,0-3.27-.73-2.88-1.45,.4-.75,1.22-1.44,4.43-1.44s3.29,.69,2.89,1.44c-.38,.72-1.22,1.45-4.44,1.45Z"/><path class="cls-2" d="M1405.35,1478.08c-3.23,0-3.28-.73-2.89-1.45,.4-.75,1.22-1.44,4.44-1.44s3.29,.69,2.88,1.44c-.38,.72-1.21,1.45-4.43,1.45Z"/><path class="cls-2" d="M1416.06,1478.08c-3.22,0-3.27-.73-2.88-1.45,.4-.75,1.22-1.44,4.44-1.44s3.29,.69,2.88,1.44c-.38,.72-1.21,1.45-4.44,1.45Z"/><path class="cls-2" d="M1415.51,1486.86c-.75,0-1.2-.44,.52-3.66,1.72-3.22,2.66-3.66,3.41-3.66,.72,0,1.21,.44-.52,3.66-1.73,3.22-2.7,3.66-3.41,3.66Z"/><path class="cls-2" d="M1409.75,1497.58c-.75,0-1.2-.44,.52-3.66,1.73-3.22,2.66-3.67,3.41-3.67,.72,0,1.21,.44-.52,3.67-1.73,3.22-2.7,3.66-3.41,3.66Z"/><path class="cls-2" d="M1404,1508.3c-.75,0-1.21-.44,.52-3.66,1.73-3.22,2.66-3.66,3.41-3.66s1.21,.44-.52,3.66c-1.73,3.23-2.7,3.66-3.41,3.66Z"/><path class="cls-2" d="M1398.24,1519.03c-.75,0-1.2-.45,.53-3.67,1.73-3.22,2.66-3.66,3.41-3.66s1.22,.44-.51,3.66c-1.73,3.22-2.7,3.67-3.42,3.67Z"/><path class="cls-2" d="M1392.49,1529.74c-.76,0-1.21-.44,.52-3.66,1.73-3.22,2.66-3.67,3.41-3.67s1.22,.44-.51,3.67c-1.73,3.22-2.7,3.66-3.41,3.66Z"/><path class="cls-2" d="M1386.74,1540.47c-.75,0-1.2-.44,.52-3.66,1.72-3.22,2.66-3.67,3.41-3.67,.72,0,1.21,.44-.52,3.67-1.73,3.22-2.7,3.66-3.41,3.66Z"/><path class="cls-2" d="M1380.98,1551.19c-.75,0-1.2-.44,.52-3.67,1.73-3.22,2.66-3.66,3.41-3.66,.72,0,1.21,.44-.52,3.66-1.73,3.23-2.7,3.67-3.41,3.67Z"/><path class="cls-2" d="M1375.23,1561.91c-.75,0-1.2-.45,.52-3.67,1.73-3.22,2.66-3.66,3.41-3.66s1.21,.44-.52,3.66c-1.73,3.22-2.7,3.67-3.41,3.67Z"/><path class="cls-2" d="M1369.48,1572.63c-.75,0-1.21-.44,.52-3.66,1.73-3.22,2.66-3.67,3.41-3.67s1.22,.44-.51,3.67c-1.73,3.22-2.7,3.66-3.41,3.66Z"/><path class="cls-2" d="M1363.72,1583.34c-.75,0-1.21-.44,.52-3.66,1.73-3.22,2.66-3.66,3.41-3.66s1.22,.44-.51,3.66c-1.73,3.23-2.7,3.66-3.41,3.66Z"/><path class="cls-2" d="M1357.97,1594.07c-.75,0-1.2-.44,.52-3.66,1.72-3.22,2.66-3.66,3.41-3.66,.72,0,1.21,.44-.52,3.66-1.73,3.23-2.7,3.66-3.41,3.66Z"/><path class="cls-2" d="M1352.21,1604.79c-.75,0-1.2-.45,.52-3.66,1.73-3.22,2.66-3.66,3.41-3.66s1.21,.44-.52,3.66c-1.72,3.22-2.69,3.66-3.41,3.66Z"/></g><g><polygon class="cls-2" points="1353.69 1611.08 1343.99 1611.08 1349.19 1601.39 1358.89 1601.39 1353.69 1611.08"/><path class="cls-2" d="M1354.14,1612.07h-11.66l6.26-11.66h11.66l-6.26,11.66Zm-8.65-1.97h7.73l4.15-7.73h-7.73l-4.15,7.73Z"/></g><g><polygon class="cls-2" points="1222.04 1612.41 1212.35 1612.41 1217.55 1602.72 1227.25 1602.72 1222.04 1612.41"/><path class="cls-2" d="M1222.51,1613.39h-11.66l6.25-11.65h11.66l-6.25,11.65Zm-8.65-1.96h7.74l4.15-7.73h-7.73l-4.15,7.73Z"/></g><g><polygon class="cls-2" points="1423.75 1480.54 1414.05 1480.54 1419.26 1470.84 1428.95 1470.84 1423.75 1480.54"/><path class="cls-2" d="M1424.2,1481.52h-11.65l6.26-11.66h11.66l-6.26,11.66Zm-8.65-1.96h7.74l4.15-7.73h-7.74l-4.15,7.73Z"/></g><g><polygon class="cls-2" points="1292.32 1481.48 1282.62 1481.48 1287.82 1471.79 1297.52 1471.79 1292.32 1481.48"/><path class="cls-2" d="M1292.77,1482.46h-11.65l6.25-11.65h11.66l-6.26,11.65Zm-8.64-1.96h7.73l4.15-7.73h-7.73l-4.15,7.73Z"/></g></g></g></g><polygon class="cls-8" points="1900.01 1182.1 1590.2 1741.03 1352.66 1741.03 1662.47 1182.1 1900.01 1182.1"/><polygon class="cls-5" points="1830.62 1738.32 1740.35 1468.44 1762.21 1461.13 1852.47 1731.01 1830.62 1738.32"/><g><polygon points="1807.72 1280.43 1644.1 1280.43 1660.28 1251.23 1823.9 1251.23 1807.72 1280.43"/><polygon points="1767.11 1348.99 1603.5 1348.99 1619.67 1319.81 1783.29 1319.81 1767.11 1348.99"/><polygon points="1724.1 1429.65 1560.48 1429.65 1576.65 1400.46 1740.27 1400.46 1724.1 1429.65"/><path d="M1595.4,1631.44c-17.26,31.14-56.5,56.39-87.64,56.39s-42.39-25.25-25.12-56.39c17.26-31.14,56.5-56.38,87.63-56.38s42.4,25.24,25.13,56.38Z"/></g></g><g><g><path class="cls-14" d="M345.28,2123.09h-38.26s-105.28-16.64-80.9-219.84c3.13-26.09,20.56-48.26,45.22-57.29,57.11-20.79,173.6-54.77,325.99-54.77,0,0,1.52,.14,4.01,.6-135.57,4.52-239.05,34.94-291.74,54.17-24.71,9.03-42.08,31.21-45.22,57.29-24.38,203.2,80.9,219.84,80.9,219.84Z"/><path class="cls-15" d="M681.88,1893.94c-32.18,96.53-65.13,178.12-65.13,178.12,0,0-15.67,51.03-79.24,51.03h-38.26c63.57,0,79.28-51.03,79.28-51.03,0,0,32.96-81.59,65.09-178.12,27.7-83.11-26.69-99.29-42.27-102.15,11.2-.41,22.63-.6,34.25-.6,0,0,78.46,6.27,46.28,102.75Z"/><path class="cls-5" d="M537.71,2127.69l-192.95-.06c-4.48-.71-109.41-19.68-84.77-224.9,3.38-28.07,21.85-51.47,48.21-61.09,56.41-20.57,173.99-55.07,327.58-55.07h.37c1.27,.12,31.38,2.79,47.94,27.83,12.96,19.58,13.75,46.84,2.35,81.02-31.85,95.53-64.89,177.55-65.22,178.37-.04,.18-17.33,53.89-83.52,53.89Zm-191.81-9.23h191.81c59.22,0,74.23-45.81,74.84-47.75,.46-1.17,33.4-82.94,65.16-178.2,10.45-31.36,10.02-55.92-1.3-73.01-13.55-20.48-38.63-23.48-40.84-23.7-152.07,.03-268.39,34.16-324.21,54.51-23.09,8.41-39.26,28.92-42.22,53.52-22.96,191.12,70.68,213.42,76.75,214.64Z"/></g><g><path class="cls-5" d="M721.51,1992.83c-41.46,45.2-72.18,82.77-129.46,214.2-16.23,37.25-61.79,75.51-61.79,75.51,26.92-13.54,188.19,230.25,74.73,232.05,0,0,80.82,16.87,177.32-94.93,96.51-111.81,143.97-375.05,134.56-433.89-9.41-58.85-123-71.84-195.37,7.06Z"/><path class="cls-5" d="M916.88,1985.76c-9.42-58.85-123-71.84-195.37,7.06-28.75,31.35-52.35,59.06-83.22,116.93,5.56,.36,12.61,.94,15.85,1.03,11.73,.33,22.65,1.75,34.25,3.73,36.67,6.23,67.13,26.66,85.26,59.67,38.22,69.56-1.82,154.47-47.17,209.11-24.02,28.93-52.66,52.43-83.22,73.5,5.88,32.81-2.66,57.23-38.27,57.79,0,0,80.81,16.87,177.32-94.93,96.51-111.81,143.97-375.05,134.56-433.89Z"/></g><g><path class="cls-5" d="M1044.18,1992.83c-41.46,45.2-72.19,82.77-129.46,214.2-16.23,37.25-61.79,75.51-61.79,75.51,26.92-13.54,188.19,230.25,74.73,232.05,0,0,80.82,16.87,177.32-94.93,96.5-111.81,143.98-375.05,134.56-433.89-9.41-58.85-123-71.84-195.36,7.06Z"/><path class="cls-5" d="M548.98,2096.12c52.76,17.73,148.81,8.49,248.39,8.49s293.67,12.92,351.36-13.01c41.11-18.48,135.23-80.91,69.6-170.31-65.63-89.4-615.78-106.94-673.5-109.2-57.71-2.26-137.3,236.51,4.15,284.04Z"/><path class="cls-20" d="M579.12,1230.89l-27.54,84.36s-67.62,17.08-96.35-28.77l34.36-78.34,89.53,22.75Z"/><g><path class="cls-2" d="M595.55,1997.87c-2.88-.94-4.4-1.46-4.4-1.46l2.97-8.72s1.5,.51,4.3,1.43l-2.87,8.76Z"/><path class="cls-2" d="M1006.91,2401.53l-5.89-7.09c2.36-1.95,4.68-3.96,6.98-5.99l6.11,6.89c-2.37,2.11-4.78,4.17-7.21,6.19Zm17.61-15.83l-6.43-6.61c2.2-2.13,4.36-4.3,6.5-6.49l6.61,6.43c-2.2,2.26-4.43,4.48-6.68,6.67Zm16.36-17.01l-6.87-6.15c2.05-2.29,4.08-4.61,6.08-6.95l7.02,5.98c-2.05,2.41-4.13,4.78-6.23,7.13Zm15.22-18.08l-7.23-5.72c1.91-2.41,3.79-4.85,5.65-7.31l7.36,5.55c-1.9,2.52-3.82,5.01-5.78,7.48Zm14.11-18.93l-7.55-5.29c1.76-2.52,3.51-5.06,5.23-7.62l7.65,5.14c-1.76,2.61-3.54,5.21-5.34,7.77Zm13.04-19.6l-7.81-4.9c1.63-2.61,3.25-5.23,4.84-7.86l7.89,4.75c-1.61,2.69-3.26,5.36-4.93,8.01Zm12.04-20.2l-8.03-4.53c1.51-2.68,3.01-5.37,4.47-8.07l8.1,4.39c-1.49,2.74-3,5.48-4.54,8.21Zm11.09-20.67l-8.22-4.17c1.4-2.76,2.77-5.52,4.12-8.29l8.28,4.04c-1.37,2.81-2.76,5.61-4.18,8.41Zm10.21-21.16l-8.38-3.84c1.28-2.81,2.54-5.62,3.78-8.44l8.44,3.7c-1.25,2.86-2.53,5.72-3.84,8.57Zm9.34-21.54l-8.53-3.5c1.18-2.86,2.32-5.73,3.44-8.59l8.58,3.37c-1.14,2.9-2.3,5.81-3.5,8.72Zm8.49-21.9l-8.66-3.17c1.06-2.9,2.1-5.81,3.11-8.7l8.7,3.03c-1.02,2.94-2.07,5.89-3.15,8.85Zm7.62-22.21l-8.77-2.83c.95-2.96,1.87-5.89,2.76-8.82l8.82,2.68c-.9,2.98-1.84,5.97-2.82,8.97Zm6.74-22.51l-8.88-2.47c.83-3,1.63-5.97,2.39-8.91l8.92,2.3c-.77,3.01-1.59,6.04-2.44,9.08Zm5.8-22.79l-8.98-2.08c.71-3.04,1.37-6.04,2-9.01l9.02,1.89c-.63,3.03-1.31,6.09-2.03,9.19Zm4.74-23.06l-9.07-1.62c.54-3.09,1.05-6.12,1.52-9.1l9.11,1.43c-.47,3.03-.99,6.13-1.55,9.29Zm3.45-23.34l-9.16-1.05c.36-3.13,.66-6.18,.9-9.13l9.19,.75c-.25,3.05-.56,6.19-.94,9.43Zm1.7-23.67l-9.22-.21c.03-1.33,.05-2.64,.05-3.92,0-1.76-.03-3.48-.08-5.14l9.21-.31c.06,1.76,.09,3.58,.09,5.45,0,1.35-.02,2.72-.05,4.13Zm-209.92-16.48l-.04-9.22c3.11-.01,6.2-.03,9.3-.07l.09,9.22c-3.11,.03-6.22,.05-9.35,.07Zm-14.02-.01c-3.11-.02-6.23-.05-9.35-.09l.12-9.22c3.1,.04,6.19,.07,9.28,.09l-.05,9.22Zm37.38-.27l-.2-9.21c3.11-.07,6.21-.15,9.29-.23l.25,9.22c-3.1,.09-6.21,.16-9.35,.23Zm-60.75-.06c-3.11-.07-6.22-.15-9.34-.24l.27-9.22c3.1,.09,6.19,.17,9.29,.24l-.22,9.22Zm84.13-.65l-.37-9.21c3.11-.12,6.2-.27,9.27-.42l.44,9.21c-3.09,.15-6.21,.29-9.35,.42Zm-107.48-.05l-9.33-.38,.41-9.21,9.29,.38-.36,9.21Zm-23.34-1.06l-9.32-.53,.55-9.2,9.28,.53-.5,9.2Zm154.18-.08l-.57-9.2c3.11-.2,6.19-.4,9.24-.62l.67,9.2c-3.08,.23-6.2,.43-9.35,.62Zm-177.49-1.36c-3.12-.22-6.23-.45-9.33-.69l.71-9.19c3.07,.24,6.16,.47,9.25,.68l-.64,9.21Zm200.84-.38l-.82-9.19c3.12-.28,6.19-.57,9.23-.87l.92,9.17c-3.07,.31-6.18,.61-9.33,.89Zm-224.16-1.47c-3.11-.29-6.22-.59-9.34-.92l.96-9.17c3.07,.33,6.15,.62,9.22,.91l-.85,9.19Zm330.13-.68c-.52-3.14-1.21-5.91-2.03-8.25l8.69-3.08c1.01,2.84,1.83,6.15,2.44,9.82l-9.1,1.51Zm-82.66-.29l-1.12-9.15c3.11-.38,6.17-.78,9.15-1.2l1.28,9.13c-3.04,.43-6.16,.83-9.32,1.22Zm-270.79-1.56c-3.1-.39-6.19-.8-9.28-1.21l1.24-9.14c3.06,.42,6.12,.81,9.19,1.2l-1.15,9.15Zm294.06-1.79l-1.54-9.09c3.11-.53,6.13-1.07,9.06-1.64l1.76,9.05c-3.01,.59-6.1,1.14-9.28,1.68Zm-317.26-1.43c-3.08-.47-6.15-.96-9.22-1.46l1.48-9.1c3.04,.5,6.09,.97,9.15,1.45l-1.41,9.11Zm340.41-3.27l-2.19-8.96c3.08-.75,6.02-1.53,8.82-2.34l2.56,8.86c-2.93,.85-5.99,1.65-9.19,2.44Zm-363.48-.55c-3.09-.55-6.15-1.11-9.21-1.68l1.69-9.06c3.02,.57,6.07,1.12,9.13,1.67l-1.62,9.08Zm-23-4.35c-3.08-.62-6.14-1.24-9.16-1.88l1.88-9.02c3.01,.62,6.04,1.25,9.1,1.86l-1.82,9.04Zm409.33-2.16l-3.42-8.56,.64-.26c4.14-1.67,8.23-1.84,11.75-.5l-3.28,8.61c-1.36-.51-3.02-.37-5.05,.46l-.63,.25Zm-432.21-2.68c-3.08-.68-6.12-1.37-9.12-2.06l2.07-8.99c2.98,.69,6,1.37,9.06,2.06l-2.01,8.99Zm-22.78-5.28c-3.07-.74-6.11-1.49-9.08-2.23l2.22-8.95c2.96,.74,5.96,1.48,9.02,2.21l-2.16,8.96Zm-22.68-5.69c-3.09-.81-6.11-1.61-9.04-2.4l2.39-8.9c2.92,.77,5.91,1.58,8.98,2.37l-2.32,8.93Zm-22.57-6.1c-3.12-.87-6.13-1.73-9-2.55l2.55-8.86c2.85,.82,5.83,1.67,8.93,2.53l-2.48,8.88Zm-22.48-6.51c-3.25-.98-6.24-1.89-8.95-2.72l2.72-8.81c2.69,.83,5.66,1.74,8.89,2.71l-2.66,8.83Z"/></g><path class="cls-20" d="M584.53,1272.94c-17.98,.53-85.83-38.27-95.48-64.04-3.44-9.18-.49-32.87,3.78-44.13,13.47-35.33,11.31-77.3,39.83-85.54,12.02-3.44,62.79,.21,73.87,.21,43.36,0,32,54.3,30.09,90.77-2.13,40.92-20.4,101.81-52.1,102.73Z"/><path class="cls-5" d="M630.6,1103.5c-4.16,1.18-16.85,3.92-16.85,3.92,0,0-7.84,29.79-14.11,40.36-6.27,10.58,2.33,52.57,22.71,59.62,20.38,7.06,3.71,27.49,.38,36.89-4.76,13.45,5.89,30.11-21.75,35.4-18.42,3.53-60.76-13.03-45.08-38.9,15.68-25.87,40.6-57.34,25.71-90.66-14.89-33.31-2.35,37.62-43.89,56.04-41.54,18.42-52.91,26.26-52.91,26.26,0,0-2.74-16.46-12.93-21.95-10.19-5.49-35.27-47.42-29-95.62,6.27-48.2,30.57-61.13,74.46-63.09,43.89-1.96,31.47-22.2,58.79-23.12,27.31-.92,65.9-27.67,65.9-27.67,0,0,26.74,91.74-11.43,102.52Z"/><path class="cls-7" d="M581.8,1301.6c81.14,28.54,132.97,92.39,177.57,276.95,44.59,184.56,102.01,203.21,117.1,254.5,0,0-186.48,100.39-280.3,271.77,0,0-317.64,25.18-298.02-232.83,19.61-258.01-28.91-308.51-17.35-404.8,11.56-96.29,93.14-179.94,148.62-185.2,45.74-4.34,89.74-2.42,152.39,19.61Z"/><path class="cls-20" d="M533.02,1169.9c5.02,16.55,20.59,26.48,34.77,22.18,14.18-4.3,21.61-21.2,16.59-37.76-5.02-16.55-20.59-26.48-34.77-22.18-14.18,4.3-21.61,21.2-16.59,37.76Z"/><path class="cls-5" d="M566.83,1182.76c-1.25,0-2.51-.38-3.7-1.15-3.92-2.5-3.58-5.84-3.3-8.52,.26-2.6,.52-5.06-2.17-8.25-2.14-2.55-4.71-3.8-6.98-4.9-3.9-1.9-8.33-4.06-5.96-12,.78-2.6,2.4-4.57,4.82-5.86,6.91-3.67,18.29-.18,18.76-.03l-1.38,4.4c-2.76-.87-10.91-2.6-15.23-.3-1.31,.7-2.14,1.71-2.56,3.1-1.25,4.21-.24,4.7,3.56,6.55,2.54,1.24,5.71,2.78,8.49,6.07,3.94,4.69,3.53,8.73,3.23,11.69-.26,2.53-.26,3.24,1.19,4.17,.83,.53,1.37,.46,1.75,.33,1.91-.63,3.75-4.08,4.35-5.65l4.31,1.63c-.26,.7-2.73,6.91-7.21,8.39-.65,.21-1.32,.33-1.98,.33Z"/><path class="cls-20" d="M1039.32,1652.18c-16.81,2.68-173.99,22-247.46,23.11-73.47,1.11-110.43,167.13,18.05,150.31l316.2-143.9s25.14-15.8,21.12-41.01c-4.02-25.21-91.1,8.82-107.91,11.5Z"/><path class="cls-20" d="M776.03,1540.45s69.45,144.86,78.7,169c9.25,24.14-62.34,126.46-110.32,101.24-47.98-25.21-121.61-112.79-154.55-201.89-32.94-89.11,126.85-168,186.17-68.35Z"/><path class="cls-7" d="M563.18,1323.75c-29.46,9.26-60.61,30.96-58.37,106,2.24,75.03,56.33,207.93,117.21,300.75,0,0,165.16-31.04,182.42-135.88,0,0-84.81-173.42-122.02-223.48-37.2-50.05-86.76-57.6-119.24-47.39Z"/><path class="cls-2" d="M622.14,1608.8c-22.83-6.46-59.32-24.56-73.7-74.99l4.43-1.26c20.59,72.23,88.25,75.18,88.93,75.2l-.15,4.61c-.24,0-8.2-.36-19.52-3.56Z"/><path class="cls-2" d="M621.79,1734.66l-.82-1.29c-.94-1.5-94.37-150.78-113.96-271.08l4.55-.74c18.46,113.36,103.2,253,112.48,268.04,9.78-1.86,64.99-13.44,111.52-45.12l2.6,3.81c-51.84,35.3-114.24,46.03-114.86,46.13l-1.51,.25Z"/><path class="cls-2" d="M974.28,2110.13c-7.97,0-12.58-.54-12.78-.57l.58-4.57c.88,.12,88.32,10.24,168.81-62.39l3.09,3.42c-63.79,57.56-132,64.11-159.7,64.11Z"/><g><path class="cls-20" d="M1190.81,1662.18c7.21,15.18,21.41,53.85,6.43,66.91-14.98,13.05-16.6-26.51-16.6-26.51,0,0-.34,27.07-7.63,25.75-7.29-1.33-16.36-17.47-16.04-33.49,.32-16.02-7.87-43.75-1.77-50.25,6.1-6.5,23.09-8.79,35.62,17.59Z"/><path class="cls-20" d="M1030.14,1653.47s61.36-30.65,113.85-35.21c52.49-4.56,61.25,10.25,79.75,48.16s-8.17,21.72-15.79,14.48c-7.62-7.24-23.58-36.11-36.76-30.4,0,0-16.71,51.17-60.5,41.75-4.24-.92-29.28,7-39.9,14.64-6.92,4.97-40.63-53.4-40.63-53.4Z"/></g></g><path class="cls-5" d="M1065.66,2122.29h-452.23v-20.6h452.23c5.69,0,10.3,4.61,10.3,10.3h0c0,5.69-4.61,10.3-10.3,10.3Z"/><g><path class="cls-14" d="M606.95,2534.77h0c-7.57,0-13.71-5.02-13.71-11.21v-413.45h27.41v413.45c0,6.19-6.14,11.21-13.7,11.21Z"/><path class="cls-5" d="M606.95,2537.07c-8.83,0-16.01-6.06-16.01-13.52v-415.75h32.02v415.75c0,7.45-7.18,13.52-16.01,13.52Zm-11.4-424.66v411.15c0,4.91,5.12,8.91,11.4,8.91s11.4-4,11.4-8.91v-411.15h-22.8Z"/></g><rect class="cls-5" x="610.87" y="2114.86" width="4.61" height="404.45"/><path class="cls-14" d="M333.36,2120.52h351.13c-15.85-3.08-95.9-29.93-75.37-257.16,12.24-135.51-70.08-343.31-95.52-398.58H149.77c-1.02,6.43,1.55,16.11,14.08,30.21,28.25,31.78,88.27,277.75,96.51,348.37,8.01,68.64-57.35,231.36,73,277.17Z"/><path class="cls-5" d="M684.49,2122.82H332.97l-.37-.13c-98.8-34.72-86.93-137.26-78.27-212.13,3.09-26.66,5.76-49.68,3.74-66.94-8.6-73.7-68.3-316.01-95.93-347.1-11.1-12.49-16.03-23.29-14.63-32.1l.31-1.95h161.59v4.61H151.88c-.14,7.04,4.56,16.09,13.69,26.37,29.59,33.29,89.42,284.05,97.07,349.63,2.08,17.79-.62,41.06-3.74,68.01-8.95,77.3-20.08,173.5,74.85,207.12h350.73v4.6Z"/><g><path class="cls-14" d="M1042.8,1893.94c-32.17,96.53-65.13,178.12-65.13,178.12,0,0-15.67,51.03-79.24,51.03h-38.26c63.57,0,79.29-51.03,79.29-51.03,0,0,32.96-81.59,65.08-178.12,27.71-83.11-26.69-99.29-42.27-102.15,11.2-.41,22.63-.6,34.25-.6,0,0,78.45,6.27,46.28,102.75Z"/><path class="cls-12" d="M898.63,2127.69l-192.95-.06c-4.48-.71-109.41-19.68-84.76-224.9,3.37-28.07,21.84-51.47,48.21-61.09,56.41-20.57,173.99-55.07,327.58-55.07h.37c1.28,.12,31.38,2.79,47.95,27.83,12.95,19.58,13.75,46.84,2.35,81.02-31.85,95.53-64.89,177.55-65.22,178.37-.04,.18-17.33,53.89-83.52,53.89Zm-191.81-9.23h191.81c59.22,0,74.23-45.81,74.84-47.75,.46-1.17,33.4-82.94,65.16-178.2,10.45-31.36,10.02-55.92-1.3-73.01-13.55-20.48-38.63-23.48-40.84-23.7-152.07,.03-268.39,34.16-324.21,54.51-23.09,8.42-39.26,28.92-42.21,53.52-22.97,191.12,70.68,213.42,76.74,214.64Z"/></g><rect class="cls-5" x="201.31" y="1598.02" width="243.63" height="4.62"/><rect class="cls-5" x="215.14" y="1644.12" width="243.62" height="4.61"/><rect class="cls-5" x="233.57" y="1690.21" width="243.62" height="4.61"/></g></g><g><path class="cls-7" d="M1958.69,1587.99c-8.55-53.33-31.37-104.38-65.51-146.24-17.12-20.95-36.76-28.15-59.17-41.95-26.18-16.13-54.19-72.71-54.18-106.13,0-2.62-123.91,22.06-125.9,26.76-3.5,8.29-.24,22.38-1.91,33.91-3.85,26.62-21.35,52.24-23.97,78.97-2.49,25.34,5.71,51.97,11.94,76.22,14.9,58.05,33.26,118.66,10.91,177.03-4.69,3.05-10.94,2.51-15.95,4.87-3.16,1.47-5.62,3.63-7.65,6.47-5.14,7.21-6.13,18.39-4.7,26.89,1.11,6.5,5.51,9.15,11.76,10.14,12.8,2.01,26.68,.22,39.35-1.99,.46-.07,.8-.27,1.15-.46,.27,.11,.51,.24,.81,.28,17.02,2.24,34.08,2.91,51.21,1.33,6.58-.62,24.28-.01,28.02-6.49,1.18-2.05,154.13,14.99,175.22,5.12,42.1-19.67,34.38-108.5,28.57-144.73Z"/><path class="cls-7" d="M2102.75,1247.78c-7.6-14.77-16.89-25.55-33.39-29.96-19.24-5.17-40.56-6.88-60.38-6.35-30.7,.81-72.33,8.72-88.54,38.22-19.55,35.56-21.68,85.14-15.99,124.31,7.73,53.2,32.83,102.21,44.99,154.38,6.69,28.69,11.18,58.08,12.79,87.53,1.45,26.71,.2,55.05-17.73,76.4-.82,.18-1.63,.53-2.29,1.32-.57,.69-1.14,1.37-1.71,2.04-.81,.98-.9,2.82-.25,3.89,.55,.91,1.09,1.8,1.63,2.71,1,1.65,2.39,2.18,4.25,2.06,11.8-.85,21.66-16.24,27.27-25.4,9.85-16.08,14.79-34.8,16.7-53.44,4.67-45.44-2.73-93.76-7.42-138.94-2.58-24.95-5.6-49.88-9.02-74.74-3.25-23.61-10.11-51.27-.07-74.1,13.22-30.01,48.75-30.51,75.55-21.59,14.13,4.69,30.89,18.41,46.58,13.81,33.68-9.86,17.71-61.37,7.02-82.17Z"/><g><path d="M1654.73,1207.37c4.32,5.68,55.34-1.07,54.45-2.03,.33-22.83-18.52-42.38-30.79-60.03-1.72-2.47-27.9,56.49-23.66,62.06Z"/><path class="cls-7" d="M1689.74,1208.09c4.31,5.68,52.99,2.5,52.12,1.52,.33-22.83-14.09-47.88-26.37-65.52-1.71-2.46-29.99,58.43-25.75,64Z"/><path class="cls-7" d="M1598.91,1292.35c3.3,17.21,16.54,24.58,32.76,26.56,44.06,5.41,28,78.28,34.7,83.48,31.53-36.04,103.26,5.66,126.32-36.08-9.76,.07-6.11-127.49-49.18-161.89-13.65-10.89-28.24-19.01-45.89-19.46-37.17-.93-66.31,25.38-80.29,57.97-.07,.17-.06,.34-.12,.52-11.19,4.74-21.85,13.24-26.02,24.96-3.48,9.79,1.14,17.6,7.72,23.94Z"/><path d="M1603.22,1250.75c-4.15-2.08-9.47,.15-11.87,4.97-2.42,4.81-4.06,13.01,.1,15.1,4.15,2.08,12.52-2.76,14.93-7.58,2.42-4.82,1-10.42-3.15-12.49Z"/><path d="M1653.02,1217.5c-5.89,0-10.65,4.77-10.65,10.64s4.77,10.66,10.65,10.66,10.66-4.77,10.66-10.66-4.77-10.64-10.66-10.64Z"/></g><path d="M1698.76,1533.96c-.22-4.95-7.95-4.98-7.73,0,2.83,66.05-.59,131.97-10.38,197.36-.73,4.87,6.72,6.97,7.46,2.06,9.9-66.07,13.51-132.66,10.66-199.41Z"/><path d="M1845.42,1576.16c-31.48,24.62-60.18,57.84-50.42,100.26-16.3,5.13-34.13,4.25-48.28,14.8-3.81-3.03-8.22-5.34-13.15-6.4,7.07-35.89,7.13-71.18,13.04-107.25,.79-4.88-6.65-6.97-7.45-2.06-5.94,36.26-5.98,71.89-13.16,107.9-.43,2.16,.81,3.72,2.4,4.41-.44,1.82,.27,3.84,2.64,4.3,12.37,2.46,21.09,13.44,20.55,26.07-.21,4.97,7.52,4.95,7.73,0,.35-7.95-2.34-15.53-7.06-21.54,13.68-9.95,32.71-8.01,48.15-13.85,2.33-.87,2.96-3.2,2.43-5.09,.09-.53,.09-1.1-.06-1.73-10.21-40.54,18.72-71.37,48.12-94.37,3.91-3.05-1.6-8.5-5.47-5.46Z"/></g><g><g><path class="cls-7" d="M2297.39,1888.17c-123.31-112.99-286.24,179.7-270.66,295.28h61.58c59.85-28.86,308.91-203.78,209.08-295.28Z"/><path class="cls-5" d="M2058.85,2184.51c91.35-167.13,238.88-292.94,240.35-294.19l-3.63-4.3c-1.49,1.26-149.8,127.75-241.67,295.79l4.94,2.7Z"/><path class="cls-5" d="M2131.28,2070c4.38-.46,107.51-11.28,138.9-23.03l-1.97-5.27c-30.72,11.5-136.45,22.6-137.51,22.71l.59,5.59Z"/><path class="cls-5" d="M2206.23,1971.57l5.21-2.1c-14.36-35.72-17.2-93.23-17.23-93.81l-5.62,.27c.11,2.39,2.92,59.04,17.63,95.64Z"/><path class="cls-5" d="M2081.26,1994.46c-37.81,66.23-60.84,142.14-54.52,188.98,86.09-75.09,68.16-176.63,54.52-188.98Z"/><path class="cls-7" d="M1981.21,1809.42c-109.42-45.46-76.48,227.62,19.64,374.03h44.8c22.38-36.56,24.16-337.21-64.44-374.03Z"/><path class="cls-5" d="M2023.98,2184.04l5.5-1.17c-17.19-81.04-63.86-342.5-64.33-345.13l-5.53,.99c.46,2.63,47.15,264.18,64.36,345.31Z"/><rect class="cls-5" x="1979.6" y="2035.11" width="5.61" height="67.78" transform="translate(-882.26 2002.83) rotate(-44.9)"/><polygon class="cls-5" points="1991.87 1987.76 2046.35 1949.53 2043.12 1944.92 1988.64 1983.16 1991.87 1987.76"/></g><path class="cls-14" d="M2197.56,2183.87v37.66c0,42.78-8.9,84.84-25.85,122.15l-6.73,14.81-45.08,40.51h-128.16l-47.81-40.51-6.73-14.81c-16.95-37.31-25.85-79.37-25.85-122.15v-37.66h286.2Z"/></g></g></g><path class="cls-14" d="M702.34,2123.09h-38.26s-105.28-16.64-80.9-219.84c3.13-26.09,20.56-48.26,45.22-57.29,57.11-20.79,173.6-54.77,325.99-54.77,0,0,1.52,.14,4.01,.6-135.57,4.52-239.05,34.94-291.74,54.17-24.71,9.03-42.08,31.21-45.22,57.29-24.38,203.2,80.9,219.84,80.9,219.84Z"/><rect class="cls-5" x="73.81" y="2226.54" width="2236.64" height="12.53"/></g></g></svg>