<svg width="840" height="620" viewBox="0 0 840 620" fill="none" xmlns="http://www.w3.org/2000/svg">
  <defs>
    <linearGradient id="paint0" x1="0" y1="0" x2="840" y2="620" gradientUnits="userSpaceOnUse">
      <stop stop-color="#006EA8"/>
      <stop offset="1" stop-color="#FF7D40"/>
    </linearGradient>
    <linearGradient id="paint1" x1="110" y1="90" x2="720" y2="520" gradientUnits="userSpaceOnUse">
      <stop stop-color="#F7F3E8"/>
      <stop offset="1" stop-color="#DDEEF7"/>
    </linearGradient>
  </defs>
  <rect x="20" y="20" width="800" height="580" rx="44" fill="url(#paint0)" opacity="0.2"/>
  <rect x="90" y="80" width="660" height="460" rx="34" fill="url(#paint1)" stroke="#0E131A" stroke-opacity="0.14" stroke-width="2"/>
  <circle cx="250" cy="230" r="86" fill="#0E131A" fill-opacity="0.1"/>
  <circle cx="585" cy="375" r="118" fill="#006EA8" fill-opacity="0.18"/>
  <path d="M190 430C218 386 276 356 334 356H516C572 356 622 388 650 434" stroke="#0E131A" stroke-opacity="0.32" stroke-width="12" stroke-linecap="round"/>
  <path d="M244 309C244 280.281 267.281 257 296 257H542C570.719 257 594 280.281 594 309V324H244V309Z" fill="#0E131A" fill-opacity="0.12"/>
  <rect x="302" y="194" width="234" height="28" rx="14" fill="#0E131A" fill-opacity="0.2"/>
</svg>
